<svg xmlns:xlink="http://www.w3.org/1999/xlink" xmlns="http://www.w3.org/2000/svg" stroke-width="0.501"
     stroke-linejoin="bevel" fill-rule="evenodd" version="1.1" overflow="visible" viewBox="0 0 75 93.75" x="0px"
     y="0px">
    <g fill="none" stroke="black" font-family="Times New Roman" font-size="16" transform="scale(1 -1)">
        <g transform="translate(0 -75)">
            <g>
                <path
                    d="M 37.656,1.016 C 37.277,1.256 37.02,1.844 36.855,2.24 C 36.693,2.63 36.587,3.027 36.464,3.429 C 36.398,3.641 36.34,3.879 36.295,4.096 C 36.2,4.559 36.099,5.018 36.055,5.484 L 36.033,5.904 L 36.029,5.939 C 35.995,6.023 35.934,6.133 35.889,6.218 C 35.735,6.512 35.577,6.798 35.363,7.055 C 35.045,7.435 34.709,7.804 34.427,8.209 C 34.076,8.71 33.862,9.316 33.807,9.927 C 33.791,9.86 33.772,9.792 33.753,9.723 C 33.77,9.795 33.789,9.872 33.805,9.949 C 33.797,10.045 33.793,10.141 33.794,10.238 L 33.801,10.201 C 33.765,10.359 33.74,10.518 33.723,10.677 C 33.62,10.783 33.518,10.891 33.419,11.001 C 33.397,11.023 33.398,11.061 33.421,11.083 C 33.443,11.104 33.481,11.103 33.503,11.081 C 33.57,11.009 33.637,10.939 33.706,10.869 C 33.682,11.191 33.683,11.514 33.679,11.838 C 33.612,12.27 33.459,12.701 33.291,13.088 C 33.115,13.492 32.923,13.88 32.736,14.276 C 32.672,14.411 32.603,14.544 32.537,14.679 C 32.505,14.746 32.448,14.879 32.422,14.919 C 32.368,15.007 32.322,15.109 32.272,15.201 C 32.154,15.416 32.045,15.625 31.937,15.844 C 31.849,16.022 31.758,16.199 31.671,16.378 C 31.653,16.398 31.637,16.419 31.621,16.44 C 31.478,16.625 31.399,16.92 31.327,17.142 C 31.297,17.236 31.24,17.334 31.201,17.427 C 31.061,17.765 30.9,18.057 30.816,18.406 C 30.688,18.934 30.965,19.471 31.108,19.963 C 31.149,20.103 31.187,20.242 31.206,20.386 C 31.215,20.447 31.247,20.533 31.263,20.598 C 31.286,20.692 31.312,20.787 31.335,20.883 C 31.444,21.333 31.579,21.781 31.686,22.231 C 31.767,22.575 31.86,22.914 31.944,23.256 C 31.96,23.322 31.974,23.388 31.989,23.454 C 31.991,23.615 31.989,23.775 31.986,23.932 C 31.977,24.335 31.994,24.742 31.987,25.146 C 31.976,25.763 31.96,26.38 31.96,26.997 C 31.96,27.216 31.955,27.438 31.955,27.659 C 31.838,27.872 31.719,28.08 31.617,28.277 C 31.432,28.631 31.281,28.974 31.178,29.327 C 31.165,29.322 31.153,29.319 31.14,29.318 C 31.048,29.307 30.963,29.372 30.952,29.464 C 30.928,29.623 30.918,29.788 30.918,29.957 C 30.78,30.15 30.643,30.346 30.495,30.533 C 30.392,30.661 30.292,30.792 30.189,30.921 C 30.115,31.015 29.969,31.166 29.93,31.275 C 29.9,31.36 29.929,31.515 29.913,31.55 C 29.903,31.572 29.905,31.596 29.899,31.614 C 29.891,31.634 29.878,31.649 29.869,31.673 C 29.859,31.703 29.815,31.749 29.798,31.782 C 29.73,31.887 29.725,32.016 29.774,32.122 C 29.747,32.136 29.72,32.15 29.694,32.165 C 29.463,32.292 29.203,32.538 29.049,32.75 C 28.962,32.869 28.895,32.97 28.818,33.095 C 28.74,33.22 28.677,33.391 28.625,33.53 C 28.585,33.636 28.551,33.744 28.567,33.858 C 28.566,33.855 28.564,33.855 28.563,33.856 C 28.471,33.894 28.426,33.999 28.463,34.091 C 28.464,34.094 28.466,34.098 28.467,34.101 C 28.455,34.161 28.445,34.221 28.437,34.282 C 28.435,34.283 28.433,34.285 28.432,34.287 C 28.295,34.397 28.158,34.497 28.018,34.593 L 27.64,34.851 L 27.773,34.321 L 27.73,34.311 C 27.692,34.467 27.652,34.625 27.612,34.78 C 27.605,34.806 27.566,34.903 27.594,34.92 C 27.614,34.933 27.866,34.76 27.906,34.734 C 28.084,34.616 28.256,34.49 28.427,34.362 C 28.407,34.52 28.398,34.68 28.395,34.841 C 28.381,34.902 28.374,34.956 28.376,34.991 C 28.373,35.03 28.38,35.066 28.395,35.101 C 28.397,35.234 28.404,35.372 28.413,35.51 C 28.423,35.677 28.546,35.81 28.702,35.842 C 28.683,35.899 28.677,35.962 28.688,36.025 C 28.715,36.219 28.765,36.413 28.795,36.608 C 28.891,37.224 28.963,37.695 28.836,38.309 C 28.816,38.403 28.773,38.55 28.729,38.635 C 28.702,38.687 28.677,38.759 28.648,38.808 C 28.615,38.862 28.576,38.916 28.543,38.97 C 28.532,38.986 28.522,39.002 28.51,39.019 C 28.513,39 28.514,38.983 28.517,38.965 C 28.548,38.685 28.528,38.402 28.543,38.122 C 28.543,38.009 28.45,37.916 28.337,37.916 C 28.224,37.916 28.131,38.009 28.131,38.122 C 28.121,38.326 28.129,38.53 28.108,38.734 C 28.084,38.951 28.049,39.143 28.004,39.351 C 27.978,39.365 27.952,39.377 27.925,39.391 C 27.76,39.472 27.595,39.551 27.432,39.635 C 27.178,39.765 26.926,39.896 26.681,40.035 C 26.635,40.046 26.588,40.056 26.542,40.068 C 26.401,39.961 26.197,39.973 26.071,40.104 C 26.049,40.125 26.02,40.151 26.001,40.175 C 25.986,40.192 25.98,40.212 25.968,40.229 C 25.758,40.305 25.562,40.404 25.398,40.549 C 25.305,40.618 25.285,40.749 25.353,40.842 C 25.365,40.859 25.38,40.873 25.396,40.886 C 25.368,40.921 25.34,40.956 25.313,40.991 C 25.223,41.103 25.134,41.226 25.042,41.333 C 24.947,41.443 24.846,41.546 24.748,41.653 C 24.67,41.738 24.536,41.827 24.441,41.896 C 24.38,41.941 24.243,42.007 24.171,42.036 C 23.802,42.179 23.524,42.209 23.191,42.208 L 23.112,42.205 L 23.17,42.207 C 23.117,42.194 23.064,42.182 23.012,42.174 L 22.96,42.169 L 22.868,42.066 C 22.508,41.708 21.847,41.525 21.376,41.371 C 21.29,41.343 21.196,41.325 21.109,41.302 C 20.778,41.215 20.442,41.147 20.105,41.088 C 19.853,41.043 19.6,41.003 19.347,40.968 C 19.177,40.931 19.003,40.905 18.821,40.894 C 18.783,40.891 18.745,40.89 18.705,40.89 C 18.317,40.848 17.925,40.816 17.533,40.795 C 17.156,40.775 16.607,40.756 16.244,40.842 C 16.123,40.87 16.073,40.945 15.992,41.026 C 15.9,41.115 15.83,41.217 15.777,41.329 C 15.749,41.313 15.722,41.297 15.694,41.281 C 15.547,41.194 15.395,41.084 15.256,40.985 C 14.839,40.683 14.401,40.462 13.901,40.345 C 13.322,40.211 12.45,40.32 11.89,40.527 C 11.68,40.604 11.405,40.694 11.219,40.816 C 11.155,40.858 11.086,40.89 11.023,40.934 C 10.912,41.01 10.805,41.087 10.713,41.182 C 10.703,41.182 10.697,41.185 10.69,41.188 C 9.945,41.544 9.361,42.106 8.866,42.751 L 8.38,43.475 L 8.086,43.764 C 7.643,44.212 7.224,44.718 6.87,45.239 C 6.317,46.051 5.866,46.908 5.479,47.797 C 5.467,47.811 5.454,47.824 5.442,47.837 C 5.233,48.06 4.99,48.341 4.818,48.594 C 4.664,48.819 4.472,49.129 4.485,49.413 C 4.491,49.544 4.525,49.68 4.628,49.753 C 4.616,49.784 4.603,49.816 4.591,49.848 C 4.519,50.026 4.605,50.231 4.784,50.303 C 4.859,50.334 4.94,50.336 5.013,50.314 C 5.011,50.363 4.988,50.405 5.004,50.464 C 5.04,50.599 5.085,50.734 5.119,50.869 C 5.121,50.878 5.124,50.888 5.126,50.899 C 4.988,50.991 4.935,51.177 5.009,51.333 C 5.071,51.486 5.147,51.614 5.194,51.777 C 5.223,51.873 5.261,51.976 5.283,52.073 C 5.349,52.358 5.389,52.623 5.421,52.91 C 5.436,53.049 5.457,53.18 5.45,53.322 C 5.466,53.854 5.427,54.365 5.268,54.861 C 5.232,55.122 5.161,55.377 5.105,55.612 C 5.069,55.76 5.034,55.911 5.003,56.065 C 4.905,56.216 4.82,56.373 4.757,56.562 C 4.375,57.715 5.023,58.839 5.692,59.744 C 5.884,60.004 6.079,60.264 6.276,60.523 C 6.35,60.642 6.426,60.762 6.502,60.882 C 6.632,61.088 6.764,61.293 6.895,61.499 C 6.835,61.649 6.793,61.808 6.774,61.976 C 6.772,62 6.788,62.024 6.812,62.027 C 6.835,62.03 6.859,62.013 6.862,61.99 C 6.878,61.848 6.913,61.727 6.958,61.596 C 7.159,61.905 7.36,62.214 7.561,62.522 C 7.471,62.44 7.383,62.348 7.3,62.255 C 7.209,62.151 7.049,62.141 6.944,62.233 C 6.84,62.325 6.83,62.485 6.922,62.589 C 7.018,62.691 7.12,62.825 7.232,62.908 C 7.337,62.986 7.43,63.083 7.539,63.158 C 7.782,63.326 8.022,63.489 8.271,63.647 C 8.363,63.896 8.44,64.154 8.498,64.423 C 8.552,64.627 8.761,64.749 8.965,64.695 C 9.07,64.667 9.153,64.598 9.202,64.509 C 9.457,64.672 9.719,64.828 9.976,64.99 C 10.004,65.007 10.033,65.025 10.062,65.044 C 9.989,65.187 9.915,65.327 9.845,65.474 C 9.833,65.5 9.844,65.533 9.87,65.544 C 9.896,65.556 9.929,65.545 9.94,65.519 C 10.006,65.378 10.072,65.234 10.147,65.098 C 10.271,65.177 10.404,65.265 10.535,65.36 L 10.575,65.394 L 11.067,65.811 C 11.102,65.848 11.136,65.886 11.166,65.923 C 11.163,65.935 11.165,65.947 11.171,65.958 C 11.179,65.972 11.193,65.979 11.209,65.979 C 11.211,65.982 11.213,65.984 11.215,65.987 C 11.283,66.083 11.344,66.173 11.403,66.274 L 11.481,66.447 L 11.518,66.679 C 11.524,66.748 11.516,66.832 11.517,66.903 C 11.521,67.198 11.537,67.428 11.656,67.698 C 11.692,67.781 11.755,67.867 11.834,67.954 C 11.846,68.159 11.889,68.351 11.991,68.582 C 12.093,68.815 12.284,68.883 12.488,68.945 C 12.373,69.151 12.269,69.361 12.176,69.568 C 12.161,69.6 12.175,69.639 12.207,69.654 C 12.24,69.668 12.279,69.655 12.293,69.623 C 12.389,69.402 12.496,69.19 12.614,68.984 C 12.646,68.995 12.677,69.006 12.708,69.018 C 12.962,69.118 13.223,69.301 13.418,69.49 C 13.618,69.684 13.801,69.892 13.972,70.111 C 13.909,70.221 13.848,70.332 13.794,70.446 C 13.78,70.474 13.79,70.51 13.818,70.524 C 13.845,70.539 13.881,70.528 13.896,70.501 C 13.943,70.401 13.994,70.306 14.049,70.211 C 14.067,70.236 14.087,70.262 14.106,70.288 C 14.218,70.439 14.332,70.591 14.439,70.744 C 14.666,71.067 15.037,71.577 15.44,71.906 C 15.442,71.924 15.441,71.943 15.436,71.973 L 15.432,71.998 C 15.406,72.153 15.512,72.301 15.667,72.327 C 15.773,72.343 15.876,72.299 15.892,72.165 C 15.914,72.184 15.919,72.186 15.924,72.188 C 15.97,72.304 16.091,72.379 16.22,72.365 C 16.464,72.322 16.727,72.312 16.974,72.278 C 17.352,72.225 17.756,72.195 18.139,72.169 C 18.678,72.133 19.226,72.097 19.766,72.123 C 19.814,72.125 19.862,72.126 19.911,72.126 C 20.081,72.264 20.243,72.416 20.399,72.562 C 20.663,72.809 21.12,73.198 21.482,73.255 C 21.842,73.311 22.204,73.344 22.566,73.364 C 22.78,73.512 23.031,73.673 23.248,73.745 C 23.584,73.856 24.003,73.868 24.354,73.852 C 24.548,73.843 24.762,73.841 24.955,73.815 C 25.224,73.779 25.501,73.757 25.771,73.723 C 26.384,73.647 26.997,73.553 27.612,73.482 C 27.801,73.514 27.986,73.552 28.165,73.602 C 28.324,73.647 28.443,73.709 28.591,73.764 C 28.648,73.791 28.71,73.8 28.769,73.796 C 28.845,73.845 28.937,73.866 29.032,73.847 C 29.06,73.835 29.106,73.834 29.136,73.824 C 29.168,73.814 29.2,73.797 29.231,73.789 C 29.274,73.776 29.451,73.691 29.485,73.667 L 29.546,73.667 C 29.622,73.673 29.682,73.658 29.756,73.647 C 29.853,73.634 30.006,73.548 30.079,73.543 C 30.101,73.542 30.137,73.549 30.167,73.547 C 30.216,73.544 30.263,73.523 30.305,73.5 C 30.379,73.459 30.621,73.203 30.659,73.12 C 30.676,73.081 30.686,72.997 30.69,72.951 C 30.703,72.786 30.666,72.589 30.615,72.393 C 30.616,72.387 30.617,72.381 30.618,72.376 C 30.659,72.033 30.736,71.762 30.862,71.442 C 30.888,71.375 30.926,71.313 30.956,71.247 C 31.015,71.117 31.1,70.945 31.183,70.828 C 31.279,70.662 31.247,70.457 31.118,70.327 C 31.534,69.867 32.102,69.553 32.701,69.298 C 32.775,69.288 32.849,69.278 32.923,69.267 C 32.893,69.319 32.861,69.371 32.831,69.423 C 32.818,69.447 32.826,69.479 32.85,69.493 C 32.873,69.506 32.905,69.498 32.919,69.474 C 32.964,69.398 33.009,69.322 33.053,69.246 C 33.354,69.193 33.65,69.112 33.886,68.953 C 33.978,68.89 34.063,68.824 34.141,68.754 C 34.26,68.709 34.377,68.663 34.491,68.617 C 34.796,68.491 35.172,68.329 35.63,67.96 C 35.628,67.964 35.626,67.966 35.625,67.97 L 35.688,68 C 35.694,67.985 35.699,67.971 35.706,67.959 C 35.823,67.862 35.928,67.757 36.012,67.641 C 36.278,67.577 36.541,67.487 36.754,67.366 C 36.854,67.309 36.94,67.253 37.024,67.19 C 37.139,67.31 37.322,67.347 37.479,67.27 C 37.563,67.252 37.667,67.222 37.753,67.21 C 37.881,67.193 38.149,67.19 38.318,67.246 L 38.355,67.264 L 38.356,67.379 C 38.344,67.64 38.329,67.91 38.37,68.167 C 38.391,68.303 38.437,68.491 38.526,68.594 C 38.655,68.744 39.072,68.835 39.27,68.853 C 39.705,68.89 40.144,68.842 40.57,68.745 C 40.516,68.842 40.534,68.968 40.622,69.044 C 40.721,69.131 40.874,69.121 40.961,69.021 C 41.035,68.936 41.109,68.851 41.187,68.77 C 41.286,68.667 41.418,68.551 41.567,68.437 C 41.601,68.426 41.634,68.415 41.668,68.406 C 42.108,68.258 42.59,68.14 43.05,68.068 C 43.266,68.034 43.481,67.992 43.7,67.973 C 43.919,67.954 44.146,67.94 44.365,67.917 C 44.453,67.907 44.543,67.91 44.634,67.9 C 45.571,67.793 46.512,67.739 47.454,67.726 C 47.419,67.759 47.386,67.791 47.355,67.825 L 47.38,67.852 C 47.42,67.81 47.467,67.767 47.513,67.726 C 47.769,67.722 48.025,67.723 48.283,67.726 C 48.353,67.726 48.417,67.693 48.457,67.64 C 48.529,67.637 48.596,67.627 48.67,67.623 C 48.733,67.619 48.819,67.581 48.878,67.564 C 49.199,67.473 49.472,67.186 49.746,67.004 C 49.799,66.969 49.864,66.92 49.921,66.893 C 49.97,66.87 50.043,66.844 50.083,66.813 C 50.141,66.768 50.173,66.723 50.198,66.654 C 50.22,66.594 50.208,66.251 50.19,66.179 C 50.184,66.153 50.16,66.101 50.158,66.081 C 50.157,66.06 50.157,66.04 50.158,66.02 C 50.356,65.819 50.552,65.618 50.747,65.412 C 50.881,65.271 51.024,65.124 51.149,64.974 C 51.292,64.804 51.437,64.63 51.582,64.46 C 51.925,64.06 52.262,63.575 52.512,63.112 C 52.614,62.926 52.763,62.65 52.795,62.439 C 52.808,62.359 52.8,62.293 52.801,62.214 C 52.826,62.124 52.809,62.032 52.762,61.958 C 52.876,61.728 52.998,61.503 53.128,61.282 C 53.395,60.827 53.692,60.387 53.989,59.95 C 54.272,59.535 54.572,59.129 54.856,58.714 C 55.078,58.389 55.315,58.042 55.491,57.708 C 55.789,57.137 55.81,56.493 55.849,55.857 C 55.903,55.752 55.955,55.647 56.006,55.542 C 56.104,55.339 56.199,55.123 56.283,54.915 C 56.336,54.784 56.384,54.644 56.443,54.517 C 56.254,54.848 56.08,55.19 55.873,55.513 C 55.9,55.217 55.942,54.927 56.032,54.651 L 56.203,54.252 L 57.178,52.561 C 57.339,52.302 57.505,52.046 57.686,51.802 C 57.819,51.63 57.971,51.456 58.111,51.288 C 58.382,50.96 58.641,50.619 58.908,50.287 C 58.908,50.286 58.908,50.285 58.908,50.284 C 58.925,50.281 58.939,50.274 58.953,50.266 C 59.011,50.233 59.062,50.172 59.107,50.123 C 59.306,49.91 59.418,49.721 59.569,49.478 C 59.676,49.305 59.765,49.111 59.85,48.909 C 59.879,48.874 59.907,48.838 59.936,48.803 C 60.204,48.466 60.488,48.138 60.759,47.802 L 61.182,47.285 L 61.481,47.257 C 61.924,47.271 62.359,47.434 62.775,47.581 C 63.086,47.69 63.371,47.802 63.658,47.888 C 63.489,48.071 63.33,48.277 63.18,48.518 C 63.332,48.28 63.497,48.075 63.674,47.893 C 64.017,47.994 64.364,48.058 64.762,48.035 C 65.147,48.012 65.544,47.866 65.928,47.719 C 66.286,47.831 66.682,47.915 66.993,47.857 C 67.104,47.835 67.179,47.809 67.284,47.771 C 67.368,47.74 67.473,47.657 67.537,47.595 C 67.546,47.586 67.555,47.577 67.565,47.568 C 67.77,47.651 68.004,47.551 68.086,47.347 C 68.168,47.143 68.068,46.909 67.864,46.827 C 67.86,46.825 67.857,46.823 67.853,46.822 C 67.859,46.742 67.86,46.661 67.86,46.582 C 67.858,46.342 67.723,46.016 67.63,45.795 C 67.621,45.774 67.573,45.646 67.574,45.62 C 67.577,45.527 67.559,45.433 67.517,45.35 C 67.265,44.852 66.97,44.373 66.655,43.912 C 66.404,43.545 66.15,43.182 65.887,42.823 C 65.638,42.483 65.386,42.145 65.13,41.807 C 65.097,41.753 65.064,41.695 65.032,41.639 C 64.915,41.428 64.816,41.236 64.723,41.015 C 64.659,40.863 64.547,40.679 64.467,40.526 C 64.307,40.219 64.107,39.892 63.916,39.605 C 63.757,39.365 63.606,39.122 63.438,38.889 C 62.364,37.398 61.126,36.077 59.945,34.674 C 59.789,34.489 59.624,34.308 59.465,34.125 C 59.363,34.008 59.268,33.884 59.167,33.766 C 58.768,33.298 58.413,32.76 58.098,32.233 C 57.986,32.044 57.847,31.796 57.765,31.594 C 57.71,31.46 57.641,31.328 57.59,31.193 C 57.538,31.059 57.49,30.916 57.444,30.779 C 57.41,30.682 57.382,30.583 57.357,30.484 C 57.491,30.38 57.489,30.291 57.558,30.138 C 57.61,30.022 57.651,29.897 57.686,29.77 C 57.702,29.756 57.719,29.742 57.736,29.729 C 57.86,29.631 57.993,29.514 58.11,29.406 C 58.147,29.375 58.152,29.319 58.121,29.282 C 58.09,29.245 58.034,29.24 57.997,29.272 C 57.92,29.33 57.845,29.391 57.77,29.452 C 57.773,29.436 57.777,29.419 57.782,29.403 C 57.89,28.984 57.864,28.547 57.878,28.12 C 57.886,27.833 57.873,27.545 57.849,27.259 C 58.032,27.093 58.219,26.931 58.41,26.778 C 58.45,26.744 58.455,26.681 58.421,26.641 C 58.386,26.601 58.323,26.596 58.283,26.63 C 58.131,26.757 57.981,26.886 57.833,27.015 C 57.841,26.921 57.848,26.826 57.855,26.731 C 57.907,25.92 57.902,25.122 57.904,24.31 C 57.905,23.794 57.899,23.275 57.894,22.758 C 57.892,22.583 57.895,22.408 57.895,22.232 C 57.895,22.153 57.901,22.067 57.89,21.988 C 57.873,21.884 57.777,21.691 57.73,21.591 C 57.651,21.424 57.58,21.243 57.507,21.072 C 57.259,20.493 56.997,19.889 56.641,19.364 C 56.628,19.309 56.614,19.253 56.6,19.197 C 56.573,19.091 56.523,19.008 56.492,18.917 C 56.463,18.833 56.249,18.586 56.185,18.505 C 55.967,18.23 55.73,17.98 55.504,17.714 C 55.332,17.511 55.135,17.323 54.958,17.124 C 54.646,16.77 54.312,16.431 53.98,16.092 C 54.267,15.871 54.566,15.685 54.866,15.483 C 54.894,15.465 54.901,15.426 54.884,15.399 C 54.866,15.372 54.827,15.364 54.8,15.382 C 54.486,15.574 54.184,15.782 53.893,16.003 C 53.737,15.845 53.583,15.686 53.432,15.526 C 53.264,15.348 53.091,15.166 52.935,14.978 C 52.907,14.944 52.873,14.908 52.841,14.871 L 52.819,14.816 L 52.799,14.573 L 52.793,14.492 C 53.179,14.172 53.572,13.86 53.974,13.555 C 53.825,13.541 53.689,13.704 53.572,13.783 C 53.311,13.96 53.044,14.186 52.791,14.401 C 52.791,14.313 52.793,14.224 52.793,14.137 C 52.792,13.767 52.833,13.363 52.864,12.993 C 52.879,12.802 52.856,12.571 52.847,12.377 C 52.84,12.238 52.812,11.727 52.76,11.624 C 52.7,11.506 52.601,11.49 52.493,11.434 C 52.376,11.373 52.243,11.27 52.131,11.186 C 52.209,11.125 52.264,11.033 52.273,10.927 C 52.274,10.909 52.274,10.89 52.273,10.873 C 52.308,10.846 52.343,10.819 52.377,10.792 C 52.4,10.774 52.406,10.739 52.388,10.716 C 52.371,10.692 52.336,10.686 52.312,10.704 C 52.289,10.717 52.266,10.732 52.244,10.748 C 52.201,10.649 52.118,10.572 52.014,10.54 C 51.996,10.449 51.978,10.358 51.956,10.262 C 51.931,10.154 51.82,10.086 51.712,10.112 C 51.604,10.137 51.536,10.247 51.562,10.356 C 51.572,10.398 51.581,10.44 51.59,10.482 C 51.376,10.447 51.17,10.383 51.028,10.211 C 50.941,10.106 50.892,9.961 50.863,9.811 C 50.932,9.75 51.002,9.687 51.072,9.627 C 51.099,9.602 51.101,9.559 51.077,9.532 C 51.052,9.505 51.009,9.503 50.982,9.527 C 50.934,9.569 50.887,9.611 50.839,9.653 C 50.829,9.568 50.822,9.485 50.817,9.411 C 50.787,8.998 50.795,8.623 50.717,8.213 C 50.696,8.104 50.643,7.839 50.575,7.756 C 50.54,7.713 50.503,7.686 50.463,7.648 C 50.145,7.358 49.801,7.081 49.469,6.806 C 49.348,6.707 49.228,6.607 49.105,6.506 C 48.335,5.609 47.504,4.769 46.628,3.954 C 46.185,3.542 45.701,3.103 45.215,2.741 C 45.05,2.619 44.886,2.474 44.716,2.36 C 44.705,2.342 44.693,2.325 44.682,2.307 C 44.623,2.218 44.559,2.111 44.49,2.031 C 44.317,1.828 44.145,1.662 43.958,1.475 C 43.876,1.393 43.797,1.364 43.711,1.355 L 43.423,1.355 C 43.226,1.352 43.029,1.361 42.832,1.371 C 42.745,1.376 42.656,1.373 42.569,1.386 C 42.385,1.412 42.184,1.406 42.003,1.442 C 41.795,1.482 41.588,1.514 41.383,1.554 C 41.365,1.552 41.348,1.551 41.331,1.551 C 40.481,1.519 39.701,1.344 38.872,1.16 C 38.539,1.085 37.98,0.811 37.656,1.016 Z M 38.136,1.775 C 38.329,1.836 38.562,1.878 38.766,1.923 C 39.04,1.982 39.315,2.045 39.592,2.102 C 39.567,2.127 39.544,2.157 39.521,2.181 C 39.448,2.259 39.37,2.302 39.284,2.359 C 39.155,2.443 38.989,2.452 38.846,2.485 C 38.73,2.502 38.649,2.612 38.665,2.728 C 38.682,2.844 38.792,2.925 38.908,2.908 C 38.959,2.898 39.012,2.896 39.062,2.885 C 39.25,2.846 39.393,2.793 39.553,2.704 C 39.093,3.232 38.637,3.767 38.167,4.288 C 37.832,4.661 37.478,5.047 37.116,5.394 C 37.023,5.483 36.928,5.573 36.835,5.664 C 36.837,5.63 36.841,5.596 36.848,5.563 C 36.871,5.44 36.873,5.31 36.902,5.186 C 36.922,5.095 36.934,4.996 36.951,4.903 C 37.016,4.536 37.103,4.133 37.206,3.776 C 37.29,3.483 37.365,3.157 37.478,2.875 C 37.558,2.675 37.627,2.48 37.714,2.282 C 37.758,2.18 37.818,2.082 37.864,1.984 C 37.883,1.944 37.926,1.873 37.977,1.808 L 38.033,1.749 C 38.082,1.762 38.127,1.772 38.136,1.775 Z M 42.829,2.033 C 43.043,2.088 43.268,2.193 43.457,2.363 C 43.279,2.505 43.097,2.645 42.918,2.785 C 42.447,3.152 41.974,3.559 41.529,3.958 C 41.142,4.303 40.78,4.671 40.416,5.04 C 40.131,5.33 39.841,5.65 39.588,5.968 C 39.271,6.368 38.946,6.762 38.672,7.195 C 38.651,7.227 38.658,7.272 38.691,7.293 C 38.723,7.315 38.768,7.307 38.789,7.275 C 39.505,6.213 40.373,5.261 41.329,4.409 C 41.457,4.295 41.58,4.175 41.709,4.063 C 42.332,3.518 42.969,2.989 43.621,2.479 C 43.639,2.463 43.651,2.442 43.655,2.42 C 43.779,2.497 43.897,2.577 44.005,2.652 C 44.079,2.703 44.152,2.754 44.225,2.807 C 44.512,3.299 44.763,3.826 45.102,4.282 C 44.773,4.614 44.448,4.951 44.127,5.292 C 43.64,5.808 43.169,6.361 42.709,6.902 C 42.455,7.201 42.201,7.505 41.952,7.809 C 41.797,7.999 41.632,8.189 41.486,8.384 L 41.538,8.427 C 41.698,8.213 41.887,7.991 42.062,7.79 C 42.307,7.511 42.541,7.22 42.787,6.942 C 43.561,6.067 44.358,5.212 45.178,4.381 C 45.23,4.446 45.284,4.509 45.34,4.57 C 45.531,4.777 45.722,4.88 45.96,5.014 C 46.224,5.164 46.47,5.353 46.722,5.521 C 46.403,5.85 46.085,6.18 45.752,6.495 C 45.298,6.923 44.836,7.342 44.378,7.768 C 43.952,8.164 43.533,8.596 43.124,9.012 L 42.844,9.296 L 42.812,9.269 C 42.701,9.391 42.586,9.525 42.481,9.652 C 42.461,9.675 42.397,9.731 42.373,9.777 L 42.368,9.81 L 42.416,9.807 L 42.441,9.789 C 42.471,9.762 42.5,9.728 42.507,9.721 C 42.619,9.613 42.732,9.506 42.846,9.4 C 43.166,9.103 43.503,8.811 43.838,8.531 C 44.758,7.765 45.615,6.955 46.47,6.12 C 46.622,5.971 46.768,5.812 46.917,5.657 C 47.103,5.792 47.288,5.941 47.467,6.079 C 47.686,6.248 47.902,6.421 48.117,6.594 C 48.103,6.59 48.087,6.59 48.073,6.597 C 47.838,6.707 47.629,6.866 47.429,7.031 C 46.96,7.417 46.57,7.874 46.185,8.341 C 45.823,8.779 45.464,9.225 45.115,9.671 C 44.937,9.898 44.747,10.11 44.561,10.329 C 44.467,10.441 44.346,10.573 44.24,10.672 C 44.174,10.732 44.106,10.806 44.038,10.859 C 43.974,10.909 43.896,10.966 43.838,11.019 L 43.871,11.062 C 43.945,10.995 44.039,10.941 44.11,10.868 C 44.172,10.805 44.247,10.746 44.311,10.681 C 44.415,10.574 44.517,10.464 44.618,10.355 C 44.796,10.163 44.959,9.959 45.127,9.76 C 45.582,9.221 46.015,8.655 46.488,8.13 C 46.946,7.622 47.507,7.008 48.126,6.701 C 48.153,6.687 48.164,6.653 48.15,6.625 C 48.469,6.879 48.533,6.93 48.596,6.982 C 48.916,7.353 49.259,7.759 49.514,8.167 C 49.561,8.241 49.609,8.313 49.652,8.39 L 49.707,8.501 L 49.764,8.708 C 49.781,8.782 49.792,8.858 49.793,8.944 C 49.798,9.253 49.725,9.582 49.758,9.887 C 49.782,10.107 49.821,10.293 49.924,10.484 C 49.534,10.846 49.146,11.212 48.76,11.577 C 47.686,12.59 46.614,13.616 45.595,14.685 L 45.626,14.716 C 46.455,13.847 47.329,13.019 48.212,12.205 C 48.753,11.704 49.31,11.22 49.857,10.725 C 49.903,10.683 49.949,10.641 49.995,10.599 C 50.252,10.97 50.742,11.221 51.157,11.357 C 51.295,11.407 51.446,11.37 51.547,11.274 C 51.548,11.274 51.549,11.275 51.55,11.275 C 51.493,11.322 51.435,11.37 51.378,11.417 C 50.733,11.955 50.148,12.504 49.541,13.084 C 49.053,13.552 48.567,14.038 48.099,14.527 C 47.929,14.705 47.759,14.895 47.584,15.067 C 47.347,15.302 47.124,15.559 46.895,15.801 C 46.7,16.006 46.502,16.221 46.316,16.434 L 46.369,16.48 C 46.728,16.068 47.121,15.65 47.505,15.26 C 47.972,14.783 48.428,14.297 48.912,13.836 C 49.662,13.12 50.4,12.399 51.195,11.735 C 51.348,11.606 51.503,11.475 51.66,11.346 C 51.672,11.355 51.684,11.364 51.696,11.373 C 51.722,11.98 51.682,12.588 51.712,13.194 C 51.638,13.258 51.563,13.321 51.489,13.386 C 50.687,14.069 49.9,14.764 49.13,15.482 C 48.254,16.299 47.366,17.106 46.491,17.923 C 47.776,16.728 49.121,15.589 50.449,14.444 C 50.871,14.079 51.293,13.704 51.721,13.337 C 51.748,13.728 51.81,14.118 51.942,14.506 C 51.975,14.603 52.026,14.707 52.086,14.812 C 52.091,14.869 52.098,14.928 52.105,14.985 C 51.573,15.451 51.055,15.935 50.6,16.483 C 50.499,16.562 50.461,16.599 50.423,16.638 C 50.32,16.738 50.217,16.839 50.119,16.945 C 49.044,17.941 48.78,18.213 48.517,18.485 L 48.56,18.528 C 49.075,17.995 49.59,17.462 50.119,16.945 C 49.718,17.252 50.13,16.838 50.6,16.483 C 51.054,16.024 51.58,15.538 52.119,15.067 C 52.153,15.216 52.269,15.397 52.341,15.524 C 52.541,15.879 52.886,16.28 53.163,16.599 C 52.339,17.318 51.584,18.122 50.833,18.915 C 50.225,19.556 49.623,20.199 49.005,20.829 C 48.757,21.082 48.48,21.316 48.235,21.569 L 48.256,21.592 C 48.377,21.468 48.514,21.352 48.639,21.232 C 48.773,21.103 48.905,20.973 49.038,20.843 C 49.4,20.488 49.75,20.119 50.105,19.757 C 51.143,18.699 52.133,17.65 53.246,16.693 C 53.644,17.148 54.055,17.592 54.467,18.034 C 54.253,18.23 54.037,18.424 53.815,18.617 C 53.198,19.149 52.561,19.66 51.94,20.189 C 51.609,20.471 51.29,20.772 50.972,21.07 C 50.668,21.357 50.389,21.674 50.111,21.986 C 50.093,22.007 50.095,22.04 50.116,22.058 C 50.136,22.075 50.169,22.073 50.187,22.053 C 50.923,21.155 51.909,20.335 52.797,19.598 C 53.342,19.147 53.881,18.697 54.411,18.231 C 54.454,18.192 54.498,18.153 54.541,18.113 C 54.663,18.244 54.786,18.376 54.909,18.507 C 55.1,18.712 55.285,18.92 55.472,19.127 C 55.548,19.211 55.641,19.313 55.728,19.414 C 55.626,19.489 55.524,19.563 55.424,19.636 C 54.516,20.285 53.674,21.081 52.872,21.856 C 52.127,22.576 51.401,23.32 50.678,24.062 C 50.301,24.449 49.907,24.822 49.535,25.212 L 49.535,25.268 L 49.591,25.268 C 49.996,24.846 50.427,24.436 50.841,24.021 C 51.57,23.29 52.302,22.552 53.063,21.855 C 53.404,21.542 53.741,21.218 54.095,20.922 C 54.371,20.69 54.646,20.456 54.923,20.225 C 55.215,19.982 55.514,19.751 55.816,19.521 C 55.856,19.572 55.892,19.622 55.922,19.669 C 55.937,19.74 55.951,19.81 55.97,19.88 C 56.008,20.026 56.027,20.188 56.057,20.336 C 56.115,20.629 56.159,20.926 56.205,21.221 C 55.602,21.782 55,22.342 54.397,22.902 C 53.132,24.075 51.866,25.253 50.696,26.522 C 50.677,26.542 50.678,26.576 50.698,26.596 C 50.719,26.615 50.753,26.614 50.772,26.594 C 52.005,25.264 53.342,24.029 54.689,22.816 C 55.208,22.349 55.721,21.872 56.234,21.398 C 56.248,21.486 56.264,21.574 56.28,21.662 C 56.313,21.834 56.335,22.016 56.359,22.19 C 56.393,22.427 56.428,22.665 56.463,22.903 C 56.355,22.994 56.245,23.086 56.135,23.181 C 55.829,23.441 55.54,23.725 55.25,24.004 C 54.904,24.336 54.567,24.673 54.231,25.015 C 53.449,25.81 52.671,26.619 51.855,27.378 C 51.657,27.561 51.459,27.752 51.255,27.927 C 51.121,28.042 50.979,28.157 50.848,28.277 C 50.829,28.295 50.826,28.327 50.844,28.346 C 50.861,28.366 50.893,28.369 50.913,28.351 C 51.175,28.11 51.455,27.879 51.722,27.641 C 51.968,27.42 52.205,27.182 52.447,26.957 C 52.684,26.737 52.907,26.5 53.139,26.276 C 53.695,25.739 54.238,25.18 54.787,24.635 C 55.335,24.092 55.904,23.571 56.487,23.069 C 56.502,23.165 56.517,23.262 56.532,23.359 C 56.623,23.947 56.705,24.542 56.783,25.137 C 56.493,25.393 56.206,25.653 55.915,25.909 C 55.159,26.568 54.429,27.268 53.709,27.968 C 52.416,29.225 51.144,30.614 50.115,32.096 L 50.124,32.154 L 50.183,32.145 C 50.634,31.483 51.16,30.861 51.68,30.253 C 52.968,28.747 54.492,27.38 55.984,26.082 C 56.258,25.842 56.536,25.606 56.813,25.37 C 56.835,25.534 56.855,25.699 56.877,25.863 C 56.922,26.216 56.977,26.578 57.008,26.93 C 57.01,26.959 57.013,26.987 57.016,27.017 C 56.978,27.171 56.942,27.325 56.909,27.484 C 56.876,27.635 56.848,27.79 56.826,27.948 C 54.934,29.788 53.296,31.878 51.715,33.99 C 51.697,34.014 51.702,34.05 51.726,34.067 C 51.749,34.085 51.785,34.08 51.803,34.057 C 52.301,33.392 52.801,32.727 53.323,32.082 C 53.943,31.316 54.58,30.581 55.24,29.85 C 55.74,29.297 56.275,28.735 56.82,28.225 C 56.82,28.225 56.821,28.224 56.823,28.222 C 56.759,28.586 56.751,28.731 56.748,28.875 C 56.706,29.085 56.666,29.297 56.628,29.509 C 56.557,29.89 56.486,30.262 56.46,30.641 C 55.951,31.146 55.463,31.674 54.991,32.193 C 54.182,33.08 53.365,33.985 52.516,34.834 C 52.257,35.094 51.985,35.341 51.727,35.599 L 51.725,35.666 L 51.791,35.668 C 52.048,35.412 52.317,35.168 52.575,34.912 C 52.793,34.696 53.003,34.469 53.223,34.255 C 53.488,33.994 53.742,33.717 53.998,33.447 C 54.267,33.163 54.539,32.882 54.81,32.598 C 55.347,32.032 55.895,31.481 56.448,30.935 C 56.448,30.988 56.449,31.043 56.452,31.099 C 56.47,31.524 56.842,32.172 57.064,32.532 C 57.092,32.578 57.121,32.625 57.15,32.671 C 55.241,34.374 53.452,36.282 52.024,38.396 L 52.079,38.433 C 52.292,38.095 52.551,37.763 52.792,37.443 C 53.261,36.822 53.793,36.212 54.33,35.649 C 55.268,34.665 56.242,33.734 57.247,32.823 C 57.522,33.255 57.814,33.68 58.115,34.099 C 57.963,34.212 57.814,34.328 57.677,34.441 C 57.414,34.655 57.149,34.863 56.896,35.088 C 56.641,35.315 56.4,35.545 56.155,35.784 C 55.256,36.661 54.426,37.587 53.584,38.52 C 53.358,38.771 53.129,39.018 52.906,39.271 L 52.954,39.316 C 54.584,37.517 56.26,35.692 58.209,34.228 C 58.559,34.71 58.921,35.185 59.283,35.654 C 59.603,36.069 59.925,36.482 60.248,36.894 C 59.988,37.056 59.746,37.232 59.495,37.41 C 59.258,37.576 58.987,37.802 58.772,37.997 C 58.486,38.259 58.204,38.51 57.93,38.785 C 57.314,39.405 56.737,40.062 56.171,40.727 C 56.153,40.748 56.134,40.77 56.115,40.79 C 56.108,40.796 56.1,40.802 56.096,40.81 C 56.091,40.816 56.087,40.822 56.081,40.83 C 55.739,41.229 55.383,41.624 55.043,42.028 C 54.895,42.203 54.73,42.366 54.58,42.54 C 54.246,42.929 53.854,43.296 53.496,43.665 L 53.535,43.704 C 53.874,43.355 54.223,43.015 54.554,42.659 C 54.997,42.182 55.425,41.694 55.859,41.208 C 55.879,41.185 55.9,41.161 55.92,41.138 C 55.913,41.15 55.907,41.162 55.9,41.175 C 55.656,41.578 55.391,41.926 55.109,42.302 C 55.01,42.434 54.893,42.56 54.786,42.687 C 54.524,43.003 54.236,43.306 53.962,43.612 C 53.02,44.662 52.086,45.7 51.592,47.044 L 51.633,47.06 C 52.124,45.725 53.056,44.681 53.997,43.643 C 54.271,43.34 54.549,43.038 54.816,42.728 C 54.898,42.632 54.978,42.527 55.063,42.434 C 55.156,42.332 55.244,42.203 55.33,42.094 C 55.601,41.746 55.828,41.383 56.041,41.001 C 56.567,40.405 57.097,39.786 57.662,39.232 C 57.934,38.965 58.203,38.706 58.483,38.447 C 58.978,37.99 59.542,37.556 60.094,37.168 C 60.173,37.111 60.252,37.056 60.332,37 C 60.65,37.404 60.969,37.807 61.287,38.21 C 61.271,38.207 61.255,38.209 61.241,38.219 C 60.537,38.675 59.897,39.215 59.283,39.787 C 58.429,40.582 57.653,41.424 56.89,42.306 C 55.769,43.603 54.67,44.907 53.503,46.162 L 53.528,46.185 C 54.126,45.543 54.704,44.893 55.291,44.242 C 55.947,43.514 56.583,42.762 57.255,42.048 C 57.545,41.742 57.833,41.437 58.125,41.132 C 58.898,40.323 59.709,39.531 60.595,38.847 C 60.826,38.669 61.064,38.48 61.307,38.318 C 61.324,38.307 61.333,38.288 61.334,38.27 C 61.416,38.372 61.498,38.476 61.581,38.581 C 61.965,39.068 62.362,39.55 62.74,40.042 C 63.172,40.603 63.614,41.164 64.053,41.72 C 64.132,41.82 64.211,41.92 64.287,42.02 C 64.374,42.179 64.467,42.334 64.572,42.484 C 64.747,42.738 64.92,42.995 65.095,43.25 C 65.357,43.631 65.635,44.037 65.831,44.459 C 65.902,44.613 65.95,44.762 66.009,44.918 C 66.041,45.004 66.065,45.104 66.083,45.205 L 66.122,45.465 L 66.115,45.663 C 66.121,45.797 66.15,45.929 66.191,46.059 C 66.155,46.085 66.118,46.11 66.08,46.135 C 65.888,46.263 65.689,46.384 65.496,46.511 C 65.397,46.575 65.301,46.638 65.207,46.698 C 64.433,46.432 63.678,46.154 62.825,46.098 C 62.675,46.088 62.511,46.089 62.358,46.111 C 63.249,45.431 64.18,44.801 65.138,44.22 C 65.19,44.188 65.207,44.119 65.176,44.066 C 65.145,44.014 65.075,43.997 65.023,44.028 C 64.523,44.313 64.018,44.646 63.545,44.974 C 62.94,45.393 62.353,45.836 61.785,46.301 C 61.757,46.311 61.728,46.32 61.701,46.328 C 61.64,46.342 61.593,46.346 61.533,46.356 L 61.568,46.355 C 61.418,46.355 61.313,46.362 61.168,46.406 C 61.114,46.422 60.93,46.502 60.89,46.499 L 60.837,46.505 C 60.724,46.494 60.617,46.497 60.52,46.567 C 60.453,46.614 60.387,46.657 60.321,46.704 C 60.22,46.776 60.078,46.923 60.002,47.021 C 59.836,47.238 59.698,47.44 59.583,47.691 C 59.488,47.895 59.403,48.11 59.31,48.318 C 58.903,48.815 58.49,49.329 58.134,49.883 C 58.093,49.916 58.058,49.956 58.025,49.996 C 57.554,50.547 57.113,51.112 56.677,51.691 C 56.652,51.723 56.659,51.771 56.691,51.796 C 56.704,51.805 56.72,51.81 56.735,51.81 C 56.679,51.898 56.622,51.987 56.567,52.076 C 56.156,52.495 55.783,52.95 55.428,53.411 C 55.409,53.449 55.356,53.509 55.328,53.555 C 55.253,53.675 55.169,53.826 55.123,53.958 C 55.097,54.035 55.058,54.132 55.041,54.21 C 54.994,54.426 54.975,54.637 54.943,54.854 L 54.862,55.268 L 54.795,55.437 C 54.749,55.537 54.653,55.667 54.585,55.757 C 54.423,55.974 54.251,56.183 54.089,56.402 C 54.015,56.501 53.938,56.621 53.876,56.745 L 53.757,57.121 L 53.763,57.1 L 53.756,57.124 L 53.682,57.439 C 53.627,57.794 53.633,58.181 53.611,58.521 C 53.606,58.59 53.6,58.661 53.59,58.734 C 52.788,59.785 51.97,60.827 51.24,61.928 C 51.229,61.944 51.223,61.962 51.223,61.98 C 51.136,62.065 51.044,62.155 50.966,62.244 C 50.39,62.892 50.001,63.607 49.607,64.372 C 49.478,64.622 49.333,64.883 49.217,65.136 C 49.093,65.406 48.953,65.664 48.816,65.926 C 48.726,66.096 48.617,66.296 48.508,66.453 C 48.45,66.537 48.391,66.625 48.332,66.712 L 48.314,66.719 L 48.232,66.751 C 48.098,66.794 47.966,66.83 47.83,66.865 C 47.704,66.898 47.563,66.902 47.439,66.93 C 47.324,66.956 47.148,66.955 47.03,66.961 C 46.821,66.973 46.617,66.974 46.408,66.973 C 45.744,66.969 45.093,66.907 44.425,66.934 C 43.976,66.951 43.554,66.998 43.155,67.086 C 43.466,66.683 43.757,66.288 44.038,65.862 C 44.472,65.203 44.868,64.499 45.273,63.82 C 45.979,62.635 46.806,61.333 47.869,60.442 C 47.907,60.408 47.91,60.348 47.876,60.31 C 47.842,60.272 47.782,60.269 47.744,60.304 C 47.608,60.426 47.448,60.554 47.324,60.686 C 47.218,60.799 47.108,60.908 47.002,61.022 C 46.644,61.411 46.267,61.899 45.99,62.35 C 45.512,63.129 45.1,63.925 44.649,64.719 C 44.509,64.964 44.375,65.225 44.227,65.463 C 44.063,65.727 43.905,65.99 43.733,66.249 C 43.538,66.544 43.323,66.816 43.109,67.097 C 42.754,67.179 42.419,67.294 42.101,67.45 C 41.898,67.501 41.694,67.559 41.485,67.616 C 41.469,67.62 41.454,67.624 41.439,67.628 C 41.431,67.581 41.414,67.535 41.388,67.493 C 41.279,67.319 41.047,67.268 40.874,67.377 C 40.583,67.561 40.25,67.836 39.904,67.878 L 39.821,67.88 L 39.821,67.728 C 39.828,67.415 39.837,67.063 39.78,66.753 C 39.748,66.588 39.734,66.372 39.599,66.259 C 39.494,66.171 39.342,66.177 39.215,66.197 C 39.149,66.207 39.073,66.21 38.995,66.21 C 39.012,66.185 39.031,66.156 39.056,66.121 C 39.063,66.112 39.066,66.107 39.07,66.102 C 39.105,66.048 39.143,65.994 39.182,65.94 C 39.317,65.777 39.431,65.603 39.551,65.417 C 39.96,64.781 40.31,64.06 40.793,63.463 C 40.807,63.441 40.824,63.421 40.842,63.402 C 41.001,63.207 41.176,63.028 41.373,62.87 C 41.319,62.86 41.158,63.025 41.116,63.067 C 41.023,63.159 40.921,63.269 40.842,63.402 C 40.76,63.461 40.697,63.539 40.793,63.463 C 40.591,63.683 40.545,63.751 40.507,63.816 C 40.428,63.948 40.332,64.076 40.251,64.21 C 39.953,64.705 39.666,65.204 39.357,65.691 C 39.301,65.777 39.241,65.859 39.182,65.94 C 39.124,66.052 39.049,66.154 39.056,66.121 C 39.037,66.147 39.016,66.178 38.991,66.21 C 38.86,66.21 38.723,66.202 38.611,66.202 C 38.024,66.202 37.243,66.126 36.602,66.257 C 36.609,66.245 36.616,66.233 36.624,66.222 C 36.941,65.691 37.259,65.143 37.63,64.646 C 37.764,64.467 37.892,64.28 38.033,64.106 C 38.126,63.991 38.227,63.877 38.317,63.761 C 38.292,63.754 38.266,63.751 38.241,63.746 C 37.579,64.501 37.005,65.396 36.506,66.278 C 36.385,66.308 36.269,66.346 36.163,66.395 C 35.974,66.481 35.826,66.578 35.709,66.748 C 35.686,66.782 35.656,66.817 35.647,66.858 C 35.638,66.894 35.628,67.009 35.619,67.029 C 35.605,67.061 35.594,67.089 35.578,67.114 C 35.324,67.112 35.069,67.113 34.814,67.111 C 34.683,67.109 34.535,67.081 34.42,67.157 C 34.384,67.181 34.347,67.217 34.323,67.253 C 34.279,67.322 34.258,67.405 34.224,67.478 C 34.189,67.554 34.152,67.627 34.116,67.701 C 33.991,67.959 33.837,68.169 33.626,68.326 C 33.614,68.329 33.602,68.334 33.59,68.339 C 33.695,68.165 33.801,67.99 33.909,67.816 C 34.602,66.688 35.318,65.571 36.007,64.44 C 36.293,63.971 36.58,63.5 36.871,63.034 C 36.885,63.011 36.877,62.978 36.854,62.964 C 36.83,62.95 36.797,62.958 36.784,62.981 C 36.326,63.715 35.873,64.454 35.419,65.19 C 34.889,66.05 34.35,66.904 33.821,67.763 C 33.689,67.976 33.56,68.19 33.432,68.405 C 33.294,68.462 33.155,68.521 33.017,68.581 C 32.723,68.64 32.382,68.652 32.109,68.704 C 32.026,68.719 31.943,68.736 31.861,68.754 C 32.764,67.592 33.641,66.414 34.504,65.217 C 34.332,65.319 34.045,65.77 33.916,65.951 C 33.549,66.467 33.162,66.98 32.778,67.483 C 32.448,67.916 32.115,68.345 31.78,68.774 C 30.899,68.983 30.052,69.39 29.741,70.317 C 29.632,70.64 29.631,71.031 29.684,71.404 C 29.369,71.794 29.053,72.184 28.738,72.574 C 28.225,72.593 27.713,72.646 27.201,72.71 C 26.688,72.663 26.17,72.658 25.647,72.654 C 24.904,72.647 24.152,72.68 23.405,72.683 C 23.612,72.405 23.83,72.136 24.037,71.855 C 24.354,71.425 24.675,70.987 25.004,70.566 C 25.485,69.955 26.014,69.256 26.611,68.749 L 26.613,68.687 L 26.55,68.685 C 25.959,69.187 25.44,69.866 24.963,70.473 C 24.661,70.858 24.377,71.259 24.081,71.65 C 23.83,71.98 23.571,72.31 23.325,72.642 L 23.33,72.683 C 23.216,72.683 23.102,72.682 22.99,72.681 C 22.916,72.63 22.848,72.582 22.792,72.546 C 22.523,72.369 22.261,72.176 21.988,72.004 C 21.724,71.839 21.478,71.711 21.198,71.579 C 21.097,71.531 20.944,71.472 20.835,71.447 C 20.602,71.391 20.369,71.362 20.135,71.35 C 20.436,70.917 20.736,70.48 21.044,70.052 C 20.846,70.168 20.739,70.387 20.607,70.565 C 20.419,70.818 20.239,71.085 20.059,71.347 C 20.026,71.346 19.994,71.345 19.963,71.345 C 19.886,71.293 19.806,71.244 19.722,71.197 C 19.231,70.923 18.722,70.892 18.193,71.008 C 18.196,71.004 18.197,71.001 18.2,70.998 C 18.421,70.636 18.642,70.273 18.865,69.912 C 19.236,69.311 19.651,68.647 20.158,68.149 L 20.101,68.133 C 20.003,68.241 19.908,68.342 19.812,68.451 C 19.651,68.635 19.506,68.849 19.367,69.049 C 19.087,69.451 18.815,69.883 18.568,70.307 C 18.435,70.537 18.288,70.783 18.141,71.006 C 18.139,71.008 18.137,71.011 18.135,71.014 C 17.988,71.025 17.972,71.029 17.956,71.033 C 17.791,71.072 17.635,71.125 17.472,71.171 C 17.381,71.197 17.29,71.229 17.199,71.261 C 17.14,71.263 17.081,71.279 17.026,71.309 C 16.972,71.333 16.913,71.366 16.84,71.377 C 16.78,71.394 16.72,71.411 16.66,71.429 C 16.574,71.454 16.475,71.463 16.387,71.49 C 16.372,71.493 16.357,71.498 16.342,71.504 C 16.306,71.498 16.27,71.491 16.222,71.483 C 16.114,71.462 15.911,71.309 15.805,71.212 C 15.773,71.124 15.722,71.023 15.685,70.951 C 15.624,70.828 15.534,70.716 15.455,70.604 C 15.268,70.338 15.06,70.083 14.841,69.841 C 14.727,69.714 14.612,69.59 14.495,69.468 C 14.603,69.304 14.721,69.141 14.833,68.988 C 15.566,67.968 16.417,67.054 17.264,66.129 C 17.289,66.101 17.287,66.056 17.259,66.03 C 17.23,66.005 17.185,66.007 17.16,66.035 C 16.999,66.204 16.844,66.386 16.688,66.56 C 16.281,67.014 15.886,67.469 15.492,67.934 C 15.231,68.244 14.978,68.573 14.747,68.905 C 14.636,69.063 14.52,69.22 14.413,69.383 C 14.065,69.023 13.707,68.677 13.344,68.327 C 13.288,68.272 13.23,68.218 13.173,68.166 C 13.265,68.049 13.362,67.936 13.463,67.826 C 13.931,67.312 14.474,66.844 14.968,66.349 C 15.224,66.094 15.429,65.816 15.656,65.538 C 15.679,65.509 15.673,65.464 15.644,65.442 C 15.614,65.419 15.569,65.425 15.547,65.454 C 15.306,65.759 15.047,66.097 14.762,66.361 C 14.588,66.523 14.413,66.701 14.242,66.869 C 14.025,67.08 13.778,67.291 13.576,67.514 C 13.453,67.649 13.329,67.783 13.207,67.92 C 13.161,67.969 13.117,68.021 13.074,68.074 C 12.974,67.983 12.875,67.893 12.777,67.803 C 12.715,67.746 12.648,67.688 12.582,67.633 C 12.584,67.6 12.585,67.572 12.587,67.55 C 12.605,67.162 12.639,66.805 12.556,66.426 C 12.47,66.036 12.246,65.873 11.968,65.64 C 11.924,65.603 11.881,65.567 11.837,65.53 C 11.867,65.499 11.896,65.467 11.924,65.433 C 12.317,64.953 12.586,64.399 12.972,63.922 C 13.113,63.749 13.265,63.628 13.442,63.495 C 13.468,63.475 13.473,63.437 13.454,63.411 C 13.434,63.385 13.396,63.38 13.37,63.399 C 12.769,63.804 12.457,64.552 12.047,65.126 C 11.955,65.255 11.863,65.366 11.763,65.466 C 11.694,65.407 11.624,65.347 11.553,65.289 C 11.543,65.28 11.533,65.272 11.514,65.258 C 11.266,64.976 10.968,64.752 10.64,64.548 C 10.609,64.528 10.58,64.509 10.55,64.489 C 10.974,63.909 11.462,63.393 11.976,62.866 C 12.286,62.548 12.57,62.208 12.861,61.872 C 12.88,61.849 12.878,61.814 12.855,61.796 C 12.833,61.777 12.798,61.779 12.779,61.802 C 12.494,62.131 12.217,62.455 11.917,62.771 C 11.426,63.288 10.918,63.813 10.491,64.384 C 10.479,64.398 10.468,64.413 10.457,64.428 C 10.439,64.417 10.421,64.406 10.404,64.396 C 10.321,64.304 10.221,64.238 10.121,64.176 L 9.633,63.919 L 9.629,63.916 L 9.404,63.715 C 9.31,63.642 9.212,63.575 9.112,63.51 C 9.114,63.508 9.116,63.508 9.119,63.507 C 9.188,63.458 9.267,63.395 9.333,63.342 C 9.523,63.189 9.698,62.961 9.849,62.771 C 10.144,62.395 10.405,61.959 10.67,61.559 C 10.948,61.14 11.243,60.761 11.647,60.459 C 11.726,60.399 11.871,60.301 11.963,60.269 C 11.987,60.258 11.997,60.228 11.985,60.205 C 11.973,60.182 11.944,60.172 11.92,60.184 C 11.834,60.211 11.693,60.303 11.618,60.357 C 11.235,60.634 10.941,60.978 10.675,61.366 C 10.223,62.027 9.864,62.697 9.283,63.251 C 9.207,63.321 9.126,63.376 9.043,63.427 C 8.465,62.606 7.907,61.763 7.367,60.912 C 7.687,60.561 8.114,60.298 8.498,60.027 C 8.646,59.923 8.808,59.821 8.944,59.7 C 9.094,59.566 9.246,59.432 9.365,59.268 C 9.409,59.208 9.448,59.142 9.494,59.083 C 9.509,59.06 9.503,59.029 9.481,59.014 C 9.458,59 9.427,59.006 9.412,59.028 C 9.365,59.091 9.325,59.164 9.278,59.224 C 9.139,59.403 8.962,59.557 8.79,59.701 C 8.587,59.872 8.33,60.023 8.113,60.182 C 7.925,60.32 7.728,60.447 7.552,60.604 C 7.47,60.676 7.392,60.754 7.319,60.835 C 7.245,60.719 7.172,60.603 7.098,60.487 C 6.951,60.252 6.792,60.02 6.65,59.782 C 6.567,59.644 6.45,59.438 6.352,59.316 C 6.317,59.272 6.291,59.21 6.258,59.162 C 6.136,58.985 6.033,58.793 5.921,58.622 C 5.879,58.568 5.821,58.441 5.79,58.373 C 5.675,58.123 5.605,57.857 5.574,57.585 C 5.605,57.555 5.636,57.525 5.664,57.495 C 5.879,57.259 6.108,57.036 6.308,56.786 C 7.064,55.842 7.745,54.953 8.758,54.277 C 8.786,54.258 8.794,54.217 8.774,54.189 C 8.755,54.16 8.714,54.152 8.685,54.172 C 7.704,54.799 7.014,55.741 6.303,56.646 C 6.147,56.844 5.97,57.047 5.799,57.231 C 5.722,57.312 5.643,57.391 5.563,57.468 C 5.541,57.163 5.563,56.853 5.62,56.554 C 5.622,56.54 5.625,56.527 5.629,56.507 C 5.674,56.392 5.705,56.272 5.738,56.155 C 5.795,55.95 5.841,55.735 5.825,55.504 C 5.836,55.448 5.847,55.392 5.859,55.335 C 5.922,55.017 6.014,54.691 6.062,54.371 C 6.079,54.258 6.095,54.147 6.11,54.034 C 6.401,53.688 6.724,53.37 7.062,53.029 C 7.449,52.639 7.854,52.27 8.222,51.859 C 8.369,51.694 8.495,51.51 8.638,51.345 C 8.665,51.311 8.657,51.26 8.623,51.234 C 8.589,51.207 8.538,51.215 8.512,51.249 C 8.234,51.613 7.942,51.981 7.613,52.3 C 7.401,52.506 7.192,52.72 6.984,52.93 C 6.685,53.231 6.396,53.527 6.131,53.836 C 6.143,53.697 6.15,53.556 6.146,53.413 C 6.144,53.344 6.151,53.259 6.144,53.193 L 6.096,52.816 L 5.986,52.157 L 5.987,52.167 C 6.095,52.073 6.203,51.975 6.292,51.866 C 6.405,51.728 6.525,51.587 6.64,51.451 C 6.778,51.287 6.909,51.085 7.035,50.909 C 7.222,50.647 7.405,50.375 7.583,50.106 C 7.971,49.524 8.368,48.938 8.847,48.427 C 8.953,48.315 9.063,48.197 9.182,48.1 C 9.159,48.092 9.133,48.085 9.11,48.078 C 8.393,48.708 7.927,49.532 7.395,50.31 C 7.038,50.833 6.657,51.459 6.213,51.912 C 6.136,51.989 6.059,52.06 5.981,52.131 L 5.945,51.912 C 5.876,51.605 5.78,51.307 5.632,51.036 C 5.621,51.014 5.609,50.994 5.595,50.976 C 5.574,50.897 5.552,50.819 5.529,50.742 C 5.582,50.43 5.569,49.989 5.419,49.661 C 5.488,49.489 5.559,49.316 5.632,49.144 C 6.234,48.459 6.858,47.783 7.515,47.152 C 7.817,46.862 8.122,46.584 8.433,46.304 C 8.88,45.901 9.352,45.503 9.836,45.144 C 10.293,44.805 10.75,44.463 11.238,44.17 C 11.263,44.154 11.271,44.12 11.256,44.096 C 11.24,44.071 11.206,44.063 11.182,44.078 C 10.961,44.195 10.725,44.359 10.516,44.499 C 9.835,44.955 9.161,45.474 8.557,46.029 C 8.128,46.424 7.688,46.815 7.281,47.234 C 6.754,47.775 6.246,48.319 5.746,48.88 L 6.179,47.907 L 6.176,47.913 C 6.199,47.89 6.222,47.866 6.246,47.841 L 6.242,47.84 L 6.264,47.843 C 6.32,47.835 6.369,47.816 6.414,47.788 L 6.512,47.707 L 6.539,47.682 C 6.615,47.601 6.679,47.504 6.742,47.425 C 6.96,47.15 7.187,46.892 7.411,46.622 C 7.711,46.259 8.022,45.902 8.328,45.544 C 9.011,44.746 9.696,43.945 10.392,43.159 C 10.622,42.899 10.85,42.636 11.087,42.382 C 11.172,42.291 11.257,42.187 11.345,42.101 C 11.484,41.965 11.587,41.811 11.476,41.622 L 11.434,41.587 L 11.836,41.441 C 12.001,41.393 12.169,41.356 12.335,41.326 C 12.82,41.235 13.408,41.214 13.922,41.259 C 13.947,41.405 14.06,41.525 14.211,41.556 C 14.093,41.665 13.981,41.787 13.866,41.898 C 13.66,42.098 13.457,42.304 13.254,42.507 C 12.933,42.83 12.607,43.147 12.289,43.474 C 11.911,43.862 11.548,44.284 11.21,44.71 C 11.885,43.865 12.629,43.132 13.4,42.375 C 13.675,42.105 13.943,41.828 14.219,41.557 C 14.222,41.558 14.225,41.558 14.227,41.559 C 14.362,41.549 14.597,41.742 14.707,41.803 C 14.761,41.835 14.813,41.876 14.867,41.91 C 15.047,42.022 15.37,42.187 15.589,42.188 C 15.712,42.188 15.881,42.191 16.034,42.16 C 16.059,42.162 16.087,42.163 16.116,42.162 C 16.308,42.155 16.535,42.114 16.722,42.066 C 17.117,41.965 17.505,41.863 17.894,41.752 C 18.096,41.693 18.277,41.627 18.473,41.6 C 18.821,41.64 19.164,41.679 19.51,41.728 C 19.517,41.73 19.523,41.732 19.529,41.735 C 19.677,41.792 19.825,41.838 19.974,41.9 C 20.156,41.976 20.338,42.057 20.518,42.139 C 19.721,42.719 19.045,43.439 18.384,44.175 C 18.042,44.554 17.688,44.938 17.322,45.294 C 17.13,45.482 16.934,45.658 16.738,45.842 C 16.716,45.86 16.715,45.894 16.734,45.916 C 16.752,45.937 16.786,45.938 16.808,45.92 C 16.923,45.808 17.053,45.708 17.165,45.596 C 17.451,45.311 17.742,45.035 18.021,44.741 C 18.539,44.193 19.052,43.625 19.601,43.108 C 19.869,42.855 20.142,42.628 20.427,42.396 C 20.506,42.33 20.589,42.269 20.674,42.209 C 20.999,42.357 21.325,42.504 21.661,42.628 C 21.826,42.688 21.996,42.74 22.168,42.783 C 21.439,43.434 20.709,44.092 20.01,44.768 C 19.29,45.463 18.509,46.215 17.897,47.013 C 17.875,47.038 17.879,47.077 17.905,47.099 C 17.93,47.12 17.969,47.116 17.991,47.091 C 18.362,46.607 18.796,46.168 19.222,45.733 C 19.639,45.309 20.097,44.886 20.546,44.496 C 20.981,44.117 21.404,43.727 21.835,43.343 C 22.023,43.174 22.212,43.005 22.401,42.834 C 22.606,42.874 22.813,42.899 23.021,42.909 C 23.058,42.92 23.096,42.932 23.128,42.943 C 23.399,43.027 23.618,43.142 23.86,43.214 C 23.758,43.303 23.658,43.393 23.557,43.484 C 22.612,44.328 21.72,45.23 20.843,46.146 L 20.844,46.202 L 20.9,46.201 C 21.39,45.68 21.915,45.177 22.435,44.685 C 22.952,44.194 23.475,43.719 24.01,43.253 C 24.098,43.27 24.19,43.281 24.29,43.283 C 24.504,43.286 24.865,43.173 24.982,42.983 C 25.028,42.908 25.075,42.719 25.101,42.628 C 25.12,42.563 25.161,42.484 25.189,42.421 C 25.246,42.288 25.309,42.173 25.38,42.064 C 25.487,41.969 25.594,41.875 25.702,41.782 C 25.632,41.83 25.562,41.876 25.491,41.924 L 25.59,41.803 L 25.662,41.788 C 25.937,41.659 26.223,41.551 26.499,41.421 C 26.774,41.29 27.054,41.152 27.321,40.997 C 27.344,41.066 27.392,41.128 27.461,41.166 C 27.605,41.245 27.789,41.192 27.868,41.048 C 27.908,40.946 27.969,40.84 28.016,40.74 C 28.032,40.704 28.047,40.67 28.063,40.636 C 28.196,40.628 28.316,40.537 28.353,40.402 C 28.364,40.359 28.366,40.316 28.361,40.275 L 28.353,40.252 L 28.43,40.175 C 28.491,40.105 28.573,40.025 28.652,39.937 C 28.687,39.983 28.732,40.02 28.789,40.045 C 28.961,40.118 29.162,40.038 29.235,39.866 C 29.271,39.77 29.32,39.677 29.354,39.579 C 29.416,39.403 29.463,39.203 29.5,39.018 C 29.559,38.723 29.592,38.413 29.599,38.068 C 29.742,37.898 29.883,37.721 30.025,37.551 C 30.57,36.891 31.159,36.156 31.89,35.692 C 31.923,35.671 31.93,35.626 31.909,35.594 C 31.888,35.561 31.843,35.554 31.81,35.575 C 31.786,35.589 31.761,35.603 31.735,35.62 L 31.735,35.602 C 31.54,35.407 31.345,35.212 31.15,35.017 L 31.087,35.017 L 31.087,35.079 C 31.282,35.274 31.478,35.47 31.673,35.665 C 31.61,35.708 31.55,35.757 31.497,35.8 C 31.333,35.935 31.166,36.064 31.017,36.215 C 30.81,36.424 30.615,36.635 30.422,36.855 C 30.155,37.159 29.897,37.481 29.642,37.795 C 29.627,37.812 29.614,37.829 29.599,37.846 C 29.597,37.682 29.588,37.509 29.575,37.327 C 29.57,37.191 29.568,37.056 29.548,36.922 C 29.541,36.88 29.536,36.838 29.531,36.796 C 29.535,36.67 29.516,36.542 29.448,36.255 C 29.439,36.212 29.431,36.17 29.423,36.127 C 29.854,35.732 30.288,35.339 30.718,34.945 C 30.742,34.923 30.744,34.886 30.722,34.863 C 30.701,34.839 30.664,34.837 30.64,34.859 C 30.227,35.237 29.812,35.614 29.398,35.993 C 29.392,35.961 29.386,35.928 29.381,35.896 C 29.376,35.869 29.368,35.843 29.331,35.843 C 29.347,35.613 29.239,35.197 29.112,34.802 C 29.114,34.694 29.122,34.587 29.137,34.49 C 29.147,34.423 29.155,34.351 29.165,34.283 C 29.219,34.205 29.273,34.133 29.32,34.072 C 29.62,33.67 29.955,33.284 30.293,32.904 C 30.438,32.788 30.584,32.672 30.731,32.559 C 30.795,32.509 30.86,32.459 30.927,32.408 C 31.076,32.392 31.251,32.389 31.334,32.266 C 31.363,32.222 31.374,32.172 31.391,32.122 C 31.395,32.108 31.4,32.093 31.403,32.077 C 31.699,31.888 32.011,31.72 32.321,31.614 C 32.364,31.597 32.385,31.546 32.369,31.504 C 32.352,31.461 32.301,31.439 32.258,31.456 C 31.986,31.546 31.711,31.684 31.441,31.849 C 31.449,31.723 31.444,31.591 31.434,31.463 C 31.451,31.433 31.469,31.405 31.486,31.376 C 31.605,31.174 31.778,30.898 31.845,30.676 C 31.893,30.512 31.852,30.274 31.877,30.088 C 31.919,29.771 31.989,29.511 32.103,29.211 C 32.141,29.111 32.186,29.009 32.235,28.908 C 32.256,28.911 32.278,28.913 32.3,28.913 C 32.468,28.907 32.601,28.764 32.595,28.596 C 32.589,28.483 32.584,28.371 32.58,28.259 C 32.931,27.625 33.247,27.046 33.337,26.315 C 33.344,26.259 33.336,26.182 33.337,26.123 C 33.339,25.977 33.347,25.795 33.316,25.654 C 33.306,25.603 33.29,25.549 33.272,25.5 C 33.262,25.469 33.232,25.42 33.226,25.39 C 33.185,25.301 33.117,25.232 33.036,25.19 C 32.996,24.951 32.957,24.711 32.919,24.471 C 33.323,24.049 33.752,23.669 34.181,23.256 C 34.609,22.843 35.077,22.401 35.412,21.907 C 35.43,21.881 35.424,21.844 35.398,21.825 C 35.372,21.807 35.334,21.813 35.316,21.839 C 35.118,22.111 34.928,22.353 34.705,22.611 C 34.499,22.847 34.245,23.091 34.018,23.308 C 33.641,23.665 33.264,24.021 32.907,24.399 L 32.907,24.397 C 32.867,24.149 32.839,23.89 32.791,23.645 C 32.753,23.45 32.713,23.257 32.671,23.065 C 32.919,22.843 33.158,22.616 33.392,22.373 C 33.864,21.883 34.314,21.344 34.751,20.822 C 35.065,20.447 35.378,20.065 35.704,19.7 C 35.955,19.42 36.194,19.131 36.458,18.864 C 36.493,18.826 36.491,18.765 36.453,18.73 C 36.415,18.695 36.354,18.697 36.319,18.735 C 35.724,19.332 35.201,20.051 34.67,20.704 C 34.32,21.134 33.981,21.56 33.614,21.975 C 33.503,22.101 33.391,22.233 33.274,22.352 C 33.063,22.564 32.86,22.763 32.648,22.959 C 32.561,22.571 32.468,22.185 32.376,21.798 C 32.454,21.714 32.485,21.591 32.447,21.477 C 32.326,21.146 32.206,20.814 32.093,20.481 C 32.09,20.47 32.086,20.459 32.083,20.448 C 32.237,20.328 32.392,20.209 32.545,20.085 C 32.797,19.879 33.063,19.626 33.289,19.392 C 33.446,19.229 33.619,19.067 33.766,18.897 C 33.946,18.69 34.136,18.49 34.318,18.284 C 35.004,17.504 35.649,16.75 36.435,16.072 C 36.465,16.046 36.467,16 36.442,15.971 C 36.417,15.942 36.371,15.939 36.342,15.964 C 35.98,16.254 35.639,16.612 35.319,16.947 C 34.78,17.511 34.277,18.121 33.76,18.706 C 33.367,19.153 32.939,19.58 32.491,19.972 C 32.346,20.098 32.195,20.213 32.044,20.329 C 32.011,20.226 31.98,20.123 31.949,20.019 L 31.939,19.965 C 31.898,19.801 31.844,19.636 31.783,19.461 C 31.747,19.318 31.711,19.158 31.69,19.021 C 31.664,18.846 31.642,18.685 31.622,18.51 C 31.621,18.502 31.62,18.494 31.619,18.486 L 31.66,18.356 C 31.721,18.193 31.806,18.032 31.873,17.879 C 31.998,17.594 32.111,17.341 32.197,17.044 L 32.19,17.066 C 32.271,16.778 32.675,16.546 32.898,16.352 C 33.179,16.106 33.322,15.934 33.414,15.611 L 33.42,15.587 L 33.451,15.553 C 33.485,15.514 33.517,15.474 33.551,15.424 C 33.587,15.37 33.62,15.3 33.645,15.224 C 33.719,15.15 33.793,15.073 33.868,14.996 C 34.244,14.596 34.605,14.179 34.972,13.77 C 35.118,13.608 35.259,13.434 35.412,13.279 C 35.568,13.121 35.71,12.947 35.868,12.788 C 36.28,12.374 36.64,12.01 37.113,11.674 C 37.272,11.561 37.527,11.419 37.721,11.381 C 37.747,11.373 37.762,11.345 37.754,11.319 C 37.746,11.292 37.718,11.278 37.691,11.286 C 36.969,11.46 36.129,12.403 35.647,12.905 C 35.417,13.144 35.202,13.401 34.98,13.647 C 34.541,14.135 34.118,14.631 33.668,15.108 C 33.656,15.12 33.643,15.133 33.63,15.144 C 33.683,15.062 33.688,15.006 33.684,14.956 L 33.682,14.932 L 33.913,14.26 C 33.987,14.015 34.054,13.758 34.116,13.5 C 35,12.262 36.039,11.084 37.154,10.051 L 37.155,9.982 L 37.086,9.981 C 36.019,10.998 35.034,12.097 34.166,13.29 C 34.185,13.212 34.202,13.135 34.22,13.061 C 34.255,12.908 34.295,12.754 34.327,12.6 C 34.351,12.487 34.39,12.37 34.399,12.255 C 34.405,12.16 34.366,12.047 34.342,11.956 C 34.358,11.73 34.403,11.506 34.457,11.279 C 34.519,11.018 34.566,10.73 34.615,10.465 C 34.636,10.352 34.669,10.241 34.697,10.13 C 34.721,10.034 34.747,9.932 34.774,9.829 C 34.81,9.849 34.85,9.863 34.893,9.868 C 35.053,9.884 35.199,9.768 35.215,9.608 C 35.219,9.543 35.224,9.477 35.229,9.413 C 35.456,9.208 35.686,9.005 35.917,8.804 C 36.207,8.551 36.498,8.297 36.786,8.042 C 36.96,7.887 37.141,7.737 37.297,7.563 L 37.302,7.497 L 37.236,7.492 C 36.99,7.656 36.77,7.865 36.547,8.058 C 36.245,8.318 35.95,8.584 35.656,8.852 C 35.519,8.975 35.382,9.099 35.246,9.223 C 35.279,8.872 35.328,8.527 35.413,8.187 C 35.492,8.094 35.572,8.002 35.654,7.906 C 35.931,7.578 36.178,7.288 36.401,6.921 C 36.492,6.773 36.571,6.614 36.645,6.467 C 36.722,6.314 36.806,6.173 36.821,6.001 C 36.824,5.957 36.826,5.913 36.827,5.869 C 36.939,5.759 37.056,5.652 37.168,5.544 C 37.506,5.219 37.861,4.869 38.176,4.523 C 38.429,4.245 38.69,3.973 38.944,3.697 C 39.338,3.271 39.722,2.83 40.102,2.39 L 40.512,2.275 C 40.524,2.271 40.538,2.268 40.552,2.264 C 40.673,2.279 40.794,2.291 40.916,2.299 C 41.058,2.309 41.191,2.299 41.331,2.3 C 41.406,2.3 41.476,2.278 41.534,2.24 C 41.689,2.223 41.79,2.19 41.91,2.112 L 41.979,2.058 L 41.996,2.045 C 42.016,2.043 42.037,2.041 42.057,2.039 L 42.147,2.041 L 42.324,2.044 C 42.4,2.042 42.467,2.02 42.537,2.009 L 42.678,2.006 L 42.696,2.006 C 42.741,2.012 42.781,2.02 42.829,2.033 Z M 39.551,4.441 C 38.817,5.212 38.111,6.098 37.638,7.054 C 37.619,7.091 37.635,7.138 37.672,7.157 C 37.709,7.175 37.756,7.16 37.774,7.122 C 38.324,6.005 39.128,5.137 39.977,4.244 C 40.334,3.869 40.708,3.533 41.077,3.174 C 41.373,2.885 41.698,2.597 42.013,2.327 C 42.051,2.294 42.054,2.234 42.02,2.196 C 41.987,2.158 41.928,2.155 41.89,2.188 C 41.066,2.898 40.302,3.653 39.551,4.441 Z M 43.118,4.065 C 41.773,5.374 40.587,6.906 39.424,8.375 C 39.408,8.396 39.412,8.427 39.432,8.444 C 39.453,8.46 39.484,8.456 39.501,8.436 C 40.572,7.089 41.636,5.76 42.846,4.534 C 43.155,4.221 43.473,3.927 43.806,3.641 C 43.979,3.493 44.16,3.332 44.342,3.196 C 44.375,3.17 44.38,3.12 44.354,3.087 C 44.327,3.054 44.278,3.049 44.244,3.075 C 43.851,3.397 43.483,3.71 43.118,4.065 Z M 48.226,8.544 C 47.52,9.021 46.857,9.759 46.308,10.405 C 45.767,11.041 45.242,11.698 44.72,12.348 L 44.745,12.368 C 45.354,11.612 45.974,10.867 46.623,10.142 C 47.32,9.364 48.189,8.595 49.15,8.169 C 49.181,8.155 49.193,8.117 49.18,8.087 C 49.166,8.056 49.128,8.044 49.098,8.057 C 48.78,8.203 48.515,8.349 48.226,8.544 Z M 48.416,9.892 C 47.577,10.718 46.797,11.596 46.026,12.484 L 46.073,12.525 C 47.203,11.224 48.392,9.962 49.756,8.902 C 49.788,8.877 49.793,8.829 49.767,8.798 C 49.742,8.767 49.694,8.762 49.663,8.787 C 49.227,9.122 48.807,9.507 48.416,9.892 Z M 61.028,9.543 C 60.809,9.571 60.613,9.696 60.44,9.905 C 60.176,10.219 60.043,10.691 59.963,11.16 C 59.942,11.179 59.92,11.199 59.9,11.218 C 59.813,11.295 59.656,11.393 59.608,11.495 C 59.578,11.56 59.577,11.612 59.574,11.68 C 59.557,12.002 59.664,12.255 59.796,12.498 C 59.784,12.567 59.77,12.634 59.755,12.694 L 59.697,12.834 L 59.643,12.888 C 59.544,13.02 59.469,13.214 59.522,13.344 C 59.559,13.434 59.629,13.512 59.691,13.584 C 59.716,13.612 59.733,13.667 59.753,13.699 C 59.776,13.699 59.807,13.723 59.83,13.71 L 59.916,13.672 L 60.005,13.866 C 60.063,13.975 60.15,14.1 60.236,14.232 C 60.181,14.222 60.127,14.212 60.071,14.201 C 59.998,14.185 59.924,14.149 59.851,14.131 C 59.78,14.109 59.703,14.149 59.68,14.22 C 59.658,14.291 59.698,14.369 59.769,14.391 C 59.911,14.423 60.044,14.48 60.192,14.508 C 60.105,14.614 60.017,14.72 59.933,14.827 L 59.98,14.866 C 60.073,14.748 60.178,14.637 60.27,14.518 L 60.268,14.518 L 60.412,14.53 C 60.46,14.623 60.496,14.717 60.511,14.806 C 60.539,14.982 60.539,15.124 60.492,15.29 L 60.43,15.448 L 60.358,15.562 C 60.281,15.722 60.234,15.942 60.229,16.083 C 60.214,16.5 60.315,16.916 60.484,17.299 L 60.575,17.479 C 60.532,17.644 60.513,17.806 60.553,17.991 C 60.6,18.215 60.879,18.402 61.037,18.541 L 61.119,18.622 L 61.123,18.658 C 61.124,18.736 61.156,18.809 61.211,18.865 C 61.259,18.914 61.405,18.989 61.471,19.026 C 61.485,19.032 61.499,19.04 61.51,19.046 C 61.971,19.448 62.541,19.707 63.124,19.931 L 62.812,19.815 C 63.067,19.949 63.328,20.071 63.613,20.182 L 63.987,20.301 L 64.108,20.524 C 64.182,20.636 64.263,20.744 64.33,20.837 C 64.347,20.861 64.367,20.887 64.402,20.913 C 64.408,20.923 64.411,20.928 64.415,20.933 C 64.576,21.184 64.729,21.441 64.892,21.693 C 64.997,21.855 65.136,22.001 65.265,22.145 C 65.382,22.275 65.678,22.524 65.852,22.545 C 66.015,22.564 66.219,22.424 66.352,22.296 C 66.476,22.331 66.594,22.351 66.675,22.339 C 66.761,22.325 66.839,22.269 66.887,22.197 C 66.956,22.095 67.04,21.622 67.065,21.491 C 67.081,21.41 67.1,21.327 67.114,21.246 C 67.237,20.532 67.283,19.809 66.994,19.128 C 66.94,19.001 66.876,18.873 66.793,18.763 L 66.726,18.686 C 67.211,18.247 67.696,17.804 68.187,17.371 C 68.207,17.354 68.208,17.322 68.19,17.302 C 68.173,17.283 68.141,17.282 68.121,17.299 C 67.63,17.731 67.145,18.174 66.661,18.613 L 66.538,18.472 L 66.309,17.95 C 66.225,17.781 66.139,17.614 66.051,17.448 C 65.973,17.154 65.882,16.856 65.787,16.572 C 65.758,16.491 65.728,16.411 65.698,16.331 C 65.75,16.297 65.802,16.264 65.856,16.233 C 65.893,16.209 65.904,16.157 65.88,16.12 C 65.857,16.083 65.805,16.072 65.768,16.096 C 65.725,16.122 65.682,16.15 65.641,16.178 C 65.629,16.143 65.617,16.108 65.606,16.073 L 65.613,16.096 C 65.553,15.92 65.492,15.724 65.441,15.546 C 65.411,15.441 65.362,15.325 65.326,15.22 C 65.196,14.842 65.049,14.468 64.903,14.095 C 64.723,13.632 64.524,13.177 64.329,12.72 C 64.158,12.32 63.964,11.934 63.776,11.541 C 63.525,11.014 63.216,10.482 62.812,10.061 C 62.655,9.898 62.123,9.638 61.922,9.572 C 61.769,9.521 61.621,9.487 61.477,9.473 C 61.459,9.459 61.439,9.446 61.418,9.435 C 61.277,9.365 61.108,9.408 61.028,9.543 Z M 61.571,10.239 C 61.676,10.275 61.775,10.302 61.878,10.349 L 62.276,10.572 L 62.38,10.661 C 62.425,10.705 62.482,10.783 62.52,10.834 C 62.591,10.928 62.655,11.028 62.716,11.128 C 62.704,11.196 62.714,11.268 62.748,11.334 C 62.964,11.784 63.229,12.216 63.404,12.687 C 63.474,12.878 63.53,13.069 63.599,13.257 C 63.659,13.428 63.704,13.627 63.747,13.816 C 63.02,14.408 62.345,15.125 61.728,15.816 C 61.601,15.956 61.472,16.098 61.344,16.239 C 61.374,15.857 61.36,15.47 61.243,15.117 C 61.194,14.974 61.147,14.857 61.066,14.757 C 61.596,14.133 62.17,13.529 62.756,12.962 C 62.654,12.96 62.6,13.048 62.533,13.11 C 62.408,13.224 62.278,13.357 62.162,13.48 C 61.777,13.885 61.395,14.292 61.031,14.717 C 61.028,14.714 61.025,14.711 61.023,14.709 C 61.026,14.705 61.025,14.702 61.024,14.699 C 60.958,14.527 60.883,14.384 60.774,14.234 C 60.731,14.173 60.681,14.11 60.627,14.045 C 60.8,13.816 60.969,13.586 61.129,13.348 C 61.312,13.073 61.508,12.781 61.707,12.517 C 61.838,12.345 61.96,12.148 62.101,11.984 C 62.136,11.933 62.123,11.859 62.071,11.824 C 62.02,11.789 61.946,11.802 61.911,11.854 C 61.592,12.36 61.291,12.876 60.972,13.382 C 60.844,13.585 60.707,13.781 60.575,13.981 C 60.544,13.942 60.512,13.902 60.481,13.863 C 60.545,13.834 60.594,13.772 60.602,13.698 C 60.604,13.646 60.613,13.59 60.619,13.538 C 60.648,13.294 60.55,12.974 60.452,12.752 C 60.448,12.745 60.446,12.738 60.443,12.727 C 60.544,12.469 60.561,12.193 60.597,11.914 C 60.621,11.716 60.646,11.523 60.68,11.33 C 60.833,11.145 60.973,10.945 61.074,10.771 C 61.151,10.638 61.246,10.497 61.31,10.358 C 61.331,10.312 61.354,10.262 61.379,10.21 C 61.443,10.215 61.509,10.216 61.571,10.239 Z M 52.128,11.753 L 52.138,11.761 L 52.265,11.855 L 52.219,12.477 C 52.205,12.588 52.181,12.701 52.164,12.814 C 52.162,12.816 52.159,12.818 52.157,12.82 C 52.137,12.465 52.137,12.108 52.128,11.753 Z M 33.186,13.889 C 33.108,14.179 33.01,14.465 32.906,14.746 C 32.89,14.79 32.873,14.993 32.893,14.988 L 32.856,15.038 C 32.778,15.114 32.718,15.166 32.681,15.277 C 32.632,15.424 32.661,15.49 32.534,15.609 C 32.528,15.614 32.522,15.62 32.516,15.625 C 32.555,15.531 32.591,15.434 32.628,15.345 C 32.794,14.938 32.94,14.522 33.097,14.108 C 33.134,14.009 33.17,13.912 33.206,13.814 C 33.199,13.84 33.192,13.864 33.186,13.889 Z M 63.815,14.104 C 63.856,14.309 63.894,14.519 63.965,14.719 C 64.045,14.945 64.133,15.167 64.228,15.384 C 64.13,15.489 64.031,15.594 63.932,15.701 C 63.776,15.867 63.609,16.067 63.442,16.218 C 63.258,16.384 63.087,16.554 62.899,16.717 C 62.789,16.812 62.664,16.895 62.551,16.99 C 62.522,17.012 62.516,17.055 62.539,17.084 C 62.561,17.112 62.604,17.118 62.633,17.095 C 62.743,17.003 62.869,16.921 62.976,16.826 C 63.178,16.648 63.381,16.464 63.566,16.269 C 63.808,16.014 64.04,15.748 64.272,15.483 C 64.468,15.924 64.691,16.35 64.922,16.776 C 64.389,17.313 63.974,17.95 63.547,18.607 C 63.523,18.645 63.532,18.698 63.57,18.722 C 63.608,18.746 63.661,18.737 63.686,18.699 C 64.073,18.103 64.49,17.454 65.002,16.923 C 65.051,17.011 65.1,17.099 65.149,17.189 C 65.208,17.294 65.265,17.402 65.318,17.509 C 65.496,18.184 65.649,18.858 65.801,19.541 C 65.86,19.803 65.917,20.084 65.984,20.334 C 65.989,20.387 66,20.439 66.006,20.491 C 66.018,20.597 66.018,20.714 66.016,20.831 L 66.012,21.144 L 65.962,21.439 C 65.647,21.261 65.351,21.017 65.117,20.774 C 65.042,20.65 64.973,20.528 64.909,20.419 C 64.774,20.188 64.52,19.771 64.28,19.648 C 64.196,19.605 64.123,19.588 64.031,19.552 C 63.809,19.464 63.578,19.389 63.353,19.307 C 63.169,19.24 62.957,19.162 62.782,19.079 C 62.667,19.025 62.556,18.966 62.443,18.908 C 62.44,18.906 62.435,18.903 62.431,18.9 L 62.305,18.826 L 62.092,18.701 C 61.811,18.498 61.569,18.214 61.416,17.92 C 61.388,17.868 61.326,17.723 61.314,17.668 C 61.298,17.593 61.267,17.47 61.239,17.402 C 61.223,17.366 61.205,17.331 61.185,17.297 C 61.209,17.187 61.233,17.077 61.251,16.972 C 61.279,16.793 61.307,16.606 61.328,16.417 C 61.498,16.23 61.67,16.043 61.841,15.861 C 62.452,15.201 63.089,14.559 63.786,13.988 C 63.796,14.028 63.806,14.066 63.815,14.104 Z M 34.017,16.659 C 33.752,16.966 33.47,17.238 33.169,17.507 C 33.101,17.568 33.014,17.642 32.939,17.692 C 32.862,17.744 32.79,17.804 32.714,17.854 C 32.617,17.917 32.513,17.97 32.416,18.034 L 32.403,18.087 L 32.455,18.1 C 32.561,18.031 32.684,17.971 32.784,17.897 C 33.164,17.619 33.527,17.325 33.839,16.971 C 34.053,16.729 34.267,16.492 34.476,16.244 C 35.12,15.482 35.716,14.701 36.559,14.15 L 36.57,14.09 L 36.51,14.08 C 35.519,14.735 34.783,15.768 34.017,16.659 Z M 60.944,16.061 C 60.923,16.204 60.896,16.345 60.864,16.484 C 60.85,16.407 60.839,16.33 60.831,16.264 C 60.815,16.14 60.841,15.91 60.895,15.802 C 60.925,15.743 60.946,15.704 60.967,15.656 C 60.97,15.805 60.96,15.947 60.944,16.061 Z M 49.733,22.864 C 48.059,24.289 46.421,25.761 45.137,27.557 L 45.146,27.617 L 45.206,27.608 C 46.125,26.321 47.231,25.247 48.409,24.199 C 49.332,23.377 50.279,22.584 51.218,21.779 C 51.247,21.754 51.25,21.71 51.225,21.682 C 51.201,21.654 51.157,21.651 51.129,21.675 C 50.659,22.065 50.198,22.469 49.733,22.864 Z M 34.82,25.212 C 34.475,25.664 34.199,26.145 33.81,26.564 C 33.751,26.629 33.654,26.729 33.583,26.776 C 33.54,26.805 33.5,26.838 33.458,26.867 C 33.412,26.899 33.343,26.923 33.293,26.955 C 33.27,26.967 33.261,26.996 33.272,27.018 C 33.284,27.041 33.313,27.05 33.336,27.039 C 33.45,26.972 33.606,26.901 33.698,26.804 C 33.729,26.77 33.775,26.734 33.81,26.704 C 33.869,26.652 33.924,26.581 33.982,26.524 C 34.124,26.384 34.281,26.153 34.402,25.991 C 34.727,25.557 35.081,24.988 35.506,24.644 C 35.621,24.55 35.718,24.503 35.841,24.43 C 35.878,24.41 35.892,24.361 35.871,24.324 C 35.851,24.287 35.802,24.273 35.765,24.294 C 35.413,24.434 35.047,24.916 34.82,25.212 Z M 50.833,25.298 C 50.748,25.363 50.654,25.422 50.567,25.485 C 50.366,25.632 50.173,25.797 49.985,25.961 C 49.226,26.621 48.552,27.408 47.871,28.145 C 47.551,28.492 47.225,28.823 46.898,29.162 L 46.898,29.223 L 46.958,29.223 C 47.18,28.987 47.412,28.76 47.634,28.524 C 48.214,27.907 48.776,27.276 49.368,26.668 C 49.901,26.121 50.536,25.512 51.18,25.104 C 51.122,25.092 50.888,25.255 50.833,25.298 Z M 35.287,27.649 C 35.052,27.86 34.85,28.077 34.64,28.31 C 34.323,28.662 34.038,29.049 33.722,29.399 C 33.587,29.548 33.453,29.707 33.311,29.849 C 33.188,29.973 33.054,30.086 32.931,30.207 C 32.884,30.252 32.823,30.297 32.771,30.337 C 32.566,30.491 32.376,30.627 32.149,30.749 C 32.046,30.805 31.934,30.851 31.829,30.903 C 31.805,30.915 31.793,30.946 31.805,30.971 C 31.816,30.995 31.848,31.007 31.872,30.995 C 31.959,30.951 32.05,30.91 32.138,30.869 C 32.405,30.745 32.749,30.508 32.973,30.317 C 33.676,29.712 34.232,28.978 34.864,28.304 C 34.974,28.185 35.089,28.074 35.208,27.968 L 35.367,27.831 L 35.344,28.01 C 35.333,28.145 35.337,28.283 35.364,28.461 C 35.486,28.207 35.543,28.055 35.577,27.773 C 35.587,27.69 35.651,27.537 35.545,27.495 C 35.461,27.46 35.345,27.596 35.287,27.649 Z M 33.127,31.755 C 32.767,32.041 32.505,32.419 32.16,32.725 C 32.042,32.831 31.848,32.952 31.699,33.011 C 31.644,33.034 31.586,33.051 31.531,33.077 C 31.494,33.09 31.476,33.134 31.489,33.171 C 31.503,33.208 31.547,33.227 31.584,33.213 C 31.676,33.172 31.766,33.142 31.858,33.098 C 32.1,32.984 32.281,32.823 32.474,32.642 C 32.625,32.501 32.781,32.318 32.924,32.164 C 33.064,32.011 33.242,31.88 33.411,31.762 C 33.491,31.707 33.671,31.576 33.757,31.548 C 33.727,31.508 33.637,31.538 33.593,31.545 C 33.425,31.572 33.26,31.65 33.127,31.755 Z M 57.265,36.957 C 56.358,37.724 55.596,38.577 54.802,39.458 C 54.612,39.67 54.426,39.89 54.231,40.096 C 54.043,40.296 53.862,40.508 53.668,40.701 C 53.603,40.765 53.545,40.837 53.479,40.899 C 53.372,40.997 53.273,41.107 53.168,41.209 C 53.032,41.342 52.888,41.469 52.753,41.603 L 52.751,41.666 L 52.814,41.668 C 52.944,41.539 53.081,41.418 53.212,41.291 C 53.553,40.959 53.898,40.604 54.215,40.251 C 54.629,39.789 55.047,39.325 55.47,38.874 C 56.228,38.067 56.948,37.325 57.844,36.666 C 58.075,36.496 58.328,36.333 58.578,36.191 C 58.652,36.149 58.724,36.099 58.8,36.062 C 58.951,35.989 59.104,35.914 59.253,35.838 C 59.284,35.822 59.298,35.783 59.282,35.752 C 59.267,35.72 59.228,35.707 59.196,35.722 C 58.495,36.064 57.862,36.451 57.265,36.957 Z M 50.763,37.095 C 50.299,37.667 49.845,38.254 49.39,38.834 L 49.443,38.875 C 50.172,37.946 50.903,37.017 51.639,36.093 C 51.292,36.37 51.04,36.752 50.763,37.095 Z M 54.191,37.201 C 54.098,37.307 54.01,37.418 53.921,37.527 C 53.523,38.011 53.134,38.503 52.734,38.984 C 52.446,39.329 52.155,39.68 51.876,40.032 C 51.705,40.248 51.519,40.453 51.344,40.665 C 51.022,41.057 50.684,41.442 50.351,41.825 C 50.014,42.21 49.659,42.579 49.309,42.953 C 49.186,43.086 49.052,43.211 48.929,43.344 C 48.902,43.371 48.903,43.415 48.93,43.441 C 48.956,43.467 49,43.466 49.026,43.44 C 49.248,43.2 49.486,42.967 49.712,42.728 C 50.269,42.141 50.821,41.497 51.329,40.868 C 51.907,40.152 52.494,39.442 53.057,38.713 C 53.548,38.078 54.045,37.435 54.553,36.815 C 54.413,36.894 54.297,37.079 54.191,37.201 Z M 60.319,41.345 C 59.302,42.233 58.386,43.193 57.453,44.165 C 57.097,44.535 56.745,44.911 56.394,45.286 C 56.862,44.516 57.328,43.744 57.805,42.979 C 57.818,42.956 57.811,42.923 57.779,42.906 C 57.764,42.895 57.731,42.903 57.717,42.927 C 57.174,43.8 56.642,44.683 56.107,45.562 C 56.1,45.572 56.098,45.587 56.101,45.601 C 55.333,46.421 54.564,47.243 53.76,48.027 C 53.732,48.053 53.732,48.098 53.759,48.125 C 53.785,48.153 53.83,48.153 53.857,48.126 C 54.204,47.774 54.555,47.428 54.899,47.074 C 55.597,46.356 56.283,45.627 56.975,44.904 C 58.666,43.135 60.37,41.398 62.355,39.956 C 62.397,39.925 62.407,39.864 62.376,39.822 C 62.345,39.78 62.284,39.77 62.242,39.802 C 61.568,40.273 60.938,40.804 60.319,41.345 Z M 29.915,40.761 C 29.577,41.092 29.242,41.431 28.909,41.768 L 28.936,41.795 C 29.469,41.256 30.007,40.718 30.547,40.185 C 30.308,40.34 30.118,40.563 29.915,40.761 Z M 27.663,41.629 C 27.401,41.801 27.114,41.992 26.869,42.189 C 26.391,42.575 25.888,42.974 25.453,43.412 C 25.126,43.74 24.785,44.071 24.487,44.428 C 24.293,44.66 24.104,44.888 23.914,45.124 L 23.921,45.18 L 23.977,45.173 C 24.163,44.923 24.396,44.637 24.612,44.412 C 24.724,44.295 24.831,44.17 24.943,44.052 C 25.103,43.884 25.274,43.726 25.435,43.56 C 25.655,43.333 25.916,43.125 26.155,42.915 C 26.545,42.572 26.997,42.23 27.423,41.93 C 28.033,41.501 28.636,41.084 29.274,40.697 C 29.401,40.62 29.525,40.537 29.655,40.464 C 28.967,40.825 28.312,41.2 27.663,41.629 Z M 61.476,43.172 C 59.019,45.167 56.926,47.643 54.924,50.08 C 54.899,50.11 54.903,50.157 54.934,50.181 C 54.964,50.206 55.011,50.202 55.035,50.172 C 55.55,49.542 56.073,48.921 56.604,48.305 C 57.046,47.791 57.493,47.268 57.96,46.778 C 58.46,46.253 58.957,45.74 59.47,45.227 C 59.972,44.723 60.508,44.256 61.042,43.786 C 61.888,43.042 62.857,42.309 63.816,41.717 C 63.861,41.688 63.874,41.627 63.845,41.582 C 63.815,41.537 63.754,41.524 63.709,41.553 C 62.932,42.03 62.183,42.598 61.476,43.172 Z M 14.073,42.408 C 13.776,42.667 13.507,42.933 13.236,43.218 C 12.955,43.514 12.679,43.836 12.387,44.117 C 12.186,44.311 11.983,44.501 11.781,44.694 L 11.81,44.725 C 11.931,44.609 12.058,44.499 12.18,44.385 C 12.417,44.163 12.647,43.919 12.871,43.683 C 13.384,43.141 13.97,42.512 14.603,42.112 C 14.623,42.098 14.628,42.068 14.614,42.048 C 14.6,42.029 14.57,42.024 14.55,42.038 C 14.397,42.125 14.208,42.291 14.073,42.408 Z M 16.54,42.35 C 16.223,42.538 15.907,42.753 15.619,42.983 C 14.793,43.645 14.022,44.43 13.367,45.263 C 13.349,45.284 13.352,45.317 13.374,45.334 C 13.395,45.352 13.427,45.349 13.445,45.327 C 13.709,44.983 14.022,44.642 14.321,44.327 C 14.559,44.077 14.828,43.799 15.092,43.578 C 15.298,43.407 15.504,43.236 15.711,43.065 C 15.875,42.929 16.071,42.808 16.247,42.686 C 16.468,42.532 16.715,42.411 16.951,42.282 C 16.984,42.265 16.998,42.222 16.981,42.189 C 16.963,42.156 16.92,42.142 16.887,42.16 C 16.776,42.207 16.646,42.287 16.54,42.35 Z M 18.264,42.485 L 18.208,42.486 C 18.072,42.615 17.942,42.755 17.811,42.889 C 17.607,43.099 17.397,43.306 17.191,43.515 C 16.844,43.869 16.497,44.224 16.151,44.579 C 15.748,44.993 15.374,45.429 14.997,45.865 L 15.035,45.896 C 15.552,45.26 16.137,44.67 16.711,44.085 C 17.221,43.567 17.743,43.047 18.265,42.541 L 18.264,42.485 Z M 56.11,43.839 C 55.786,44.143 55.473,44.465 55.165,44.784 C 54.697,45.267 54.218,45.741 53.719,46.188 C 53.717,46.189 53.716,46.19 53.715,46.191 C 53.714,46.192 53.712,46.193 53.711,46.195 C 53.316,46.548 52.894,46.856 52.493,47.201 C 52.707,47.032 52.928,46.865 53.142,46.696 C 53.243,46.614 53.346,46.53 53.711,46.195 C 53.545,46.361 53.635,46.284 53.715,46.191 L 53.717,46.191 C 53.718,46.19 53.719,46.189 53.719,46.188 C 53.905,46.047 54.076,45.889 54.24,45.731 C 54.981,45.013 55.683,44.233 56.449,43.545 C 56.382,43.557 56.172,43.78 56.11,43.839 Z M 10.258,44.937 C 10.059,45.153 9.871,45.377 9.676,45.596 C 9.341,45.969 9.001,46.339 8.663,46.711 C 7.63,47.849 6.61,48.966 5.746,50.239 C 5.728,50.265 5.734,50.302 5.76,50.32 C 5.787,50.338 5.824,50.332 5.841,50.305 C 6.692,49.033 7.764,47.9 8.811,46.789 C 9.149,46.431 9.499,46.072 9.829,45.706 C 10.02,45.493 10.211,45.278 10.405,45.068 C 10.44,45.028 10.437,44.964 10.397,44.929 C 10.357,44.894 10.294,44.897 10.258,44.937 Z M 66.306,46.352 C 66.404,46.564 66.657,46.656 66.869,46.558 C 66.928,46.53 66.978,46.49 67.017,46.443 C 67.023,46.46 67.029,46.479 67.037,46.497 L 67.049,46.646 C 66.902,46.641 66.749,46.653 66.58,46.68 C 66.327,46.72 66.068,46.807 65.815,46.9 C 65.641,46.847 65.471,46.789 65.302,46.732 C 65.461,46.641 65.624,46.552 65.78,46.457 C 65.901,46.383 66.029,46.313 66.147,46.235 C 66.175,46.215 66.203,46.196 66.232,46.176 C 66.254,46.236 66.28,46.294 66.306,46.352 Z M 63.085,46.878 L 63.395,46.906 C 63.677,46.964 63.956,47.046 64.241,47.135 C 64.311,47.156 64.381,47.179 64.452,47.202 C 64.434,47.215 64.417,47.227 64.399,47.24 L 64.391,47.241 L 63.652,47.058 C 63.496,47.006 63.339,46.947 63.181,46.887 L 63.085,46.878 Z M 64.572,47.242 L 64.511,47.241 L 64.467,47.24 C 64.479,47.232 64.49,47.225 64.5,47.218 C 64.524,47.225 64.547,47.233 64.572,47.242 Z M 9.264,56.089 C 9.022,56.322 8.805,56.614 8.558,56.839 C 8.409,56.976 8.25,57.148 8.111,57.297 C 7.868,57.558 7.609,57.813 7.384,58.091 C 7.18,58.345 6.963,58.585 6.759,58.84 C 6.673,58.946 6.565,59.062 6.49,59.174 L 6.497,59.237 L 6.561,59.23 C 6.697,59.025 6.9,58.817 7.057,58.62 C 7.49,58.08 7.996,57.548 8.491,57.064 C 8.702,56.857 8.901,56.638 9.109,56.428 C 9.191,56.345 9.266,56.245 9.35,56.167 C 9.371,56.143 9.369,56.106 9.346,56.085 C 9.323,56.063 9.285,56.065 9.264,56.089 Z M 55.038,56.447 C 55.03,56.577 55.005,56.705 54.983,56.834 C 54.754,57.163 54.521,57.489 54.283,57.813 C 54.29,57.705 54.301,57.597 54.318,57.489 C 54.33,57.409 54.36,57.331 54.375,57.26 C 54.384,57.218 54.387,57.164 54.406,57.121 C 54.424,57.079 54.438,57.029 54.462,56.986 C 54.595,56.755 54.801,56.487 54.978,56.283 C 55.003,56.253 55.028,56.221 55.053,56.19 C 55.047,56.276 55.042,56.362 55.038,56.447 Z M 54.491,57.938 L 54.346,58.192 C 54.317,58.242 54.288,58.291 54.258,58.342 C 54.259,58.321 54.259,58.299 54.26,58.279 C 54.311,58.212 54.361,58.145 54.411,58.079 L 54.491,57.938 Z M 53.42,59.368 L 53.413,59.387 L 53.286,59.608 C 53.139,59.856 52.958,60.087 52.809,60.331 C 52.735,60.452 52.63,60.605 52.543,60.716 C 52.412,60.883 52.296,61.077 52.169,61.25 C 51.96,61.534 51.77,61.838 51.562,62.123 C 51.404,62.339 51.265,62.574 51.11,62.792 C 50.803,63.225 50.52,63.7 50.25,64.158 C 50.036,64.524 49.791,64.968 49.656,65.371 C 49.645,65.402 49.633,65.434 49.621,65.467 C 49.528,65.561 49.434,65.655 49.34,65.75 C 49.141,65.948 48.94,66.163 48.735,66.352 L 48.383,66.693 L 48.446,66.668 C 48.666,66.359 48.87,66.029 49.054,65.713 C 49.258,65.359 49.441,64.994 49.631,64.633 C 49.78,64.349 49.917,64.046 50.08,63.77 C 50.301,63.396 50.51,63.056 50.766,62.703 C 50.929,62.478 51.128,62.277 51.323,62.079 C 51.352,62.078 51.381,62.064 51.4,62.038 C 52.02,61.101 52.726,60.223 53.428,59.346 L 53.42,59.368 Z M 45.71,60.767 C 44.559,61.954 43.686,63.304 42.857,64.732 C 42.526,65.302 42.194,65.904 41.904,66.497 C 41.892,66.522 41.901,66.555 41.927,66.568 C 41.952,66.581 41.985,66.571 41.998,66.546 C 42.179,66.175 42.384,65.806 42.584,65.444 C 43.02,64.657 43.482,63.873 43.995,63.134 C 44.543,62.343 45.121,61.538 45.804,60.857 C 45.828,60.832 45.827,60.79 45.802,60.765 C 45.777,60.741 45.735,60.742 45.71,60.767 Z M 48.56,62.006 C 47.349,63.095 46.548,64.524 45.694,65.897 C 45.672,65.931 45.684,65.978 45.718,65.999 C 45.752,66.02 45.799,66.009 45.821,65.975 C 46.108,65.511 46.394,65.039 46.696,64.584 C 46.889,64.292 47.078,63.991 47.289,63.711 C 47.615,63.281 47.919,62.861 48.309,62.484 C 48.693,62.112 49.129,61.717 49.608,61.472 C 49.648,61.447 49.662,61.393 49.637,61.353 C 49.613,61.313 49.558,61.299 49.518,61.323 C 49.18,61.525 48.854,61.741 48.56,62.006 Z M 43.66,61.855 C 43.28,62.292 42.944,62.747 42.617,63.224 C 42.253,63.753 41.899,64.297 41.57,64.848 C 41.286,65.322 40.991,65.793 40.718,66.272 C 40.589,66.499 40.443,66.719 40.317,66.947 L 40.364,66.974 C 40.478,66.766 40.611,66.548 40.736,66.346 C 40.874,66.125 41.003,65.894 41.137,65.669 C 41.344,65.324 41.556,64.981 41.763,64.637 C 41.984,64.267 42.225,63.888 42.47,63.534 C 42.877,62.943 43.259,62.397 43.726,61.852 C 43.705,61.852 43.681,61.853 43.66,61.855 Z M 17.504,69.323 C 17.354,69.546 17.169,69.758 16.94,69.905 C 16.838,69.97 16.714,70.033 16.603,70.078 C 16.56,70.096 16.501,70.11 16.462,70.131 C 16.435,70.14 16.421,70.171 16.43,70.198 C 16.439,70.226 16.47,70.239 16.497,70.231 C 16.58,70.192 16.675,70.166 16.761,70.125 C 17.074,69.975 17.367,69.729 17.559,69.439 C 17.683,69.252 17.79,69.065 17.886,68.862 C 18.085,68.448 18.246,68.004 18.528,67.639 C 18.631,67.505 18.737,67.409 18.864,67.3 C 18.889,67.277 18.891,67.236 18.869,67.211 C 18.846,67.186 18.805,67.184 18.78,67.206 C 18.114,67.719 17.953,68.652 17.504,69.323 Z M 34.78,67.819 L 34.807,67.763 L 34.887,67.763 C 34.851,67.783 34.815,67.802 34.78,67.819 Z M 29.914,68.422 C 29.826,68.493 29.735,68.601 29.657,68.684 C 29.571,68.775 29.483,68.867 29.4,68.962 C 29.254,69.13 29.114,69.299 29.032,69.501 C 28.828,69.735 28.648,69.986 28.508,70.271 C 28.153,70.691 28.012,70.938 27.878,71.196 L 27.918,71.215 C 28.089,70.878 28.277,70.555 28.508,70.271 C 28.51,70.111 28.735,69.787 29.032,69.501 C 29.35,69.071 29.713,68.674 30.109,68.293 C 30.03,68.274 29.967,68.379 29.914,68.422 Z M 28.512,68.443 L 28.475,68.449 L 28.419,68.458 C 28.399,68.474 28.34,68.588 28.314,68.616 C 28.26,68.675 28.214,68.773 28.164,68.838 C 28.075,68.955 27.983,69.071 27.894,69.188 C 27.723,69.414 27.513,69.661 27.319,69.868 C 27.004,70.206 26.702,70.579 26.42,70.946 C 26.264,71.15 26.083,71.398 25.966,71.627 L 26.024,71.662 C 26.134,71.448 26.295,71.232 26.437,71.039 C 26.711,70.666 27.02,70.304 27.33,69.96 C 27.567,69.698 27.802,69.42 28.018,69.139 C 28.088,69.049 28.173,68.95 28.236,68.856 C 28.327,68.719 28.415,68.576 28.512,68.443 Z M 30.528,70.313 C 30.505,70.236 30.543,70.182 30.588,70.131 C 30.674,70.028 30.753,69.959 30.861,69.895 C 29.969,71.05 29.636,71.463 30.528,70.313 Z M 29.834,72.066 C 29.835,72.069 29.836,72.073 29.838,72.083 C 29.822,72.122 29.816,72.165 29.811,72.208 L 29.773,72.594 L 29.549,72.576 C 29.298,72.564 29.048,72.564 28.798,72.572 C 29.095,72.204 29.395,71.836 29.694,71.468 C 29.727,71.68 29.777,71.884 29.834,72.066 Z M 15.428,71.821 L 15.434,71.831 L 15.428,71.821 Z M 15.434,71.831 L 15.532,71.978 C 15.501,71.955 15.47,71.932 15.44,71.906 C 15.438,71.885 15.434,71.865 15.434,71.831 Z"
                    stroke="none" fill="#000000" stroke-width="0.5" fill-rule="evenodd" marker-start="none"
                    marker-end="none" stroke-miterlimit="79.8403193612775"/>
            </g>
        </g>
    </g>
</svg>
